<svg width="237" height="180" viewBox="0 0 237 180" fill="none" xmlns="http://www.w3.org/2000/svg">
<path d="M59.8156 170.185L236.685 170.185L204.325 132.181L204.325 69.4028C204.325 47.6072 186.657 29.9385 164.861 29.9385L59.8157 29.9385C38.0201 29.9385 20.3514 47.6073 20.3514 69.4028L20.3514 130.721C20.3514 152.517 38.0201 170.185 59.8156 170.185Z" fill="#0469DE"/>
<path d="M222.369 153.372C203.009 155.704 189.957 150.987 168.203 138.606L142.917 142.817C168.173 164.006 205.861 173.337 230.385 162.786L222.369 153.372Z" fill="#0456B8"/>
<path d="M137.518 170.185C115.957 160.487 103.824 152.924 89.1849 138.606L38.6135 142.817C44.7424 155.419 50.3213 162.533 63.433 170.185L137.518 170.185Z" fill="#0456B8"/>
<path d="M197.703 80.7115C198.546 97.5536 181.899 95.4483 174.524 92.2905V36.501C182.25 44.5712 196.86 63.8694 197.703 80.7115Z" fill="#0456B8"/>
<path d="M182.891 113.933L182.337 113.283L182.337 112.428L182.337 49.6498C182.337 29.1364 165.708 12.507 145.194 12.507L40.1489 12.507C19.6355 12.507 3.00606 29.1364 3.00606 49.6499L3.00607 110.968C3.00607 131.482 19.6354 148.111 40.1489 148.111L211.992 148.111L182.891 113.933Z" fill="#FAFCFE" stroke="#0469DE" stroke-width="4.64286"/>
<path d="M32.1514 98.1637C44.8373 94.2568 55.4081 89.2531 65.8798 81.3271C72.7465 76.1299 80.7274 69.7993 83.4162 61.4507C85.4388 55.1705 77.6455 59.0787 75.0452 60.983C60.1973 71.8566 48.7243 101.443 61.786 102.957C69.3764 103.838 79.3831 96.004 85.066 92.1423C94.3723 85.8183 102.732 78.2616 110.301 70.1028C111.453 68.8616 123.769 54.5651 115.189 58.1769C104.021 62.8783 82.7832 83.7255 90.9929 96.8776C99.4064 110.356 122.852 90.0549 129.335 83.7825C132.045 81.1602 138.317 75.0134 138.317 75.0134C138.317 75.0134 137.035 76.6512 136.392 77.4688C134.737 79.574 133.158 81.7216 131.748 83.9871C130.326 86.2724 125.341 93.6623 131.412 93.6623C137.185 93.6623 142.685 90.7977 148.185 87.1147" stroke="#06192F" stroke-width="3" stroke-linecap="round" stroke-linejoin="round"/>
</svg>
