<svg width="24" height="24" viewBox="0 0 24 24" fill="none" xmlns="http://www.w3.org/2000/svg">
<path fill-rule="evenodd" clip-rule="evenodd" d="M12.005 2.77917C11.9202 2.87086 11.8014 3.05425 11.6826 3.3723L11.6822 3.37349L9.92029 8.06858C9.70871 8.62021 9.29342 9.04572 8.74391 9.21445C8.19441 9.38318 7.611 9.2644 7.12311 8.92663L7.11359 8.92004L3.21247 6.12912C2.99033 5.96956 2.81239 5.87023 2.679 5.81232C2.69761 5.95746 2.74393 6.15765 2.83645 6.41809C2.83637 6.41785 2.83654 6.41833 2.83645 6.41809L6.97792 18.0022C6.98569 18.0244 7.02344 18.0893 7.11285 18.1525C7.20241 18.2158 7.27678 18.23 7.30001 18.23H16.7C16.7237 18.23 16.8006 18.2154 16.8958 18.1498C16.9849 18.0885 17.0278 18.0254 17.0401 17.9997L21.0729 6.70996C21.0731 6.7095 21.0732 6.70904 21.0734 6.70859C21.202 6.3447 21.2508 6.08218 21.2578 5.91128C21.0966 5.96559 20.8595 6.08514 20.5474 6.30923L20.5455 6.31062L16.8814 8.92352C16.3961 9.26475 15.8129 9.38341 15.264 9.21419C14.7161 9.04524 14.3012 8.61985 14.0898 8.06858L14.0878 8.0635L12.3278 3.37349L12.3274 3.3723C12.2086 3.05425 12.0898 2.87086 12.005 2.77917ZM13.7323 2.8468C13.5718 2.41717 13.3652 2.03867 13.101 1.75499C12.834 1.46841 12.4624 1.23499 12.005 1.23499C11.5476 1.23499 11.1761 1.46841 10.9091 1.75499C10.6448 2.03867 10.4382 2.41717 10.2777 2.84682C10.2776 2.8471 10.2778 2.84653 10.2777 2.84682L8.51896 7.53347C8.45061 7.71019 8.3564 7.76432 8.30362 7.78052C8.25106 7.79666 8.14087 7.80543 7.98093 7.6961L4.08757 4.91085C4.08737 4.91071 4.08776 4.91099 4.08757 4.91085C3.69446 4.62855 3.30219 4.4146 2.92808 4.31242C2.56236 4.21254 2.08616 4.18961 1.68583 4.49031C1.28528 4.79118 1.1746 5.25531 1.169 5.63551C1.16328 6.0244 1.2601 6.46191 1.42332 6.92116L1.42379 6.92247L5.56212 18.4977C5.56244 18.4987 5.56275 18.4996 5.56307 18.5005C5.69563 18.877 5.96228 19.1762 6.24718 19.3775C6.53262 19.5792 6.90325 19.73 7.30001 19.73H16.7C17.0963 19.73 17.4645 19.5795 17.7467 19.3852C18.0285 19.191 18.296 18.904 18.4376 18.5454C18.4407 18.5377 18.4435 18.53 18.4463 18.5223L22.4863 7.21228L22.4871 7.21001C22.6629 6.71296 22.765 6.24368 22.7584 5.82992C22.7518 5.42493 22.6339 4.9442 22.2224 4.63302C21.8099 4.32112 21.3147 4.33978 20.9229 4.44593C20.5237 4.5541 20.1018 4.78277 19.6737 5.08996C19.6733 5.09022 19.673 5.09048 19.6726 5.09074L16.0186 7.69646C16.0181 7.69687 16.0175 7.69727 16.0169 7.69767C15.8631 7.80517 15.757 7.7965 15.706 7.78078C15.6541 7.76479 15.5596 7.71056 15.4911 7.53353L13.7323 2.8468C13.7324 2.84709 13.7322 2.84652 13.7323 2.8468Z" fill="#0469DE"/>
<path opacity="0.34" fill-rule="evenodd" clip-rule="evenodd" d="M5.75 22C5.75 21.5858 6.08579 21.25 6.5 21.25H17.5C17.9142 21.25 18.25 21.5858 18.25 22C18.25 22.4142 17.9142 22.75 17.5 22.75H6.5C6.08579 22.75 5.75 22.4142 5.75 22Z" fill="#0469DE"/>
<path opacity="0.34" fill-rule="evenodd" clip-rule="evenodd" d="M8.75 14C8.75 13.5858 9.08579 13.25 9.5 13.25H14.5C14.9142 13.25 15.25 13.5858 15.25 14C15.25 14.4142 14.9142 14.75 14.5 14.75H9.5C9.08579 14.75 8.75 14.4142 8.75 14Z" fill="#0469DE"/>
</svg>
