<svg width="24" height="24" viewBox="0 0 24 24" fill="none" xmlns="http://www.w3.org/2000/svg">
<path opacity="0.34" fill-rule="evenodd" clip-rule="evenodd" d="M11.8894 6.30169C12.7434 5.34092 14.34 5.93408 14.34 7.22996V10.53H15.33C16.531 10.53 17.1825 11.9479 16.3828 12.8557L12.123 17.6955L12.1205 17.6982C11.2665 18.659 9.66999 18.0658 9.66999 16.77V13.47H8.67999C7.47914 13.47 6.82757 12.0523 7.627 11.1444L11.8894 6.30169ZM12.84 7.49203L8.89867 11.97H10.42C10.8342 11.97 11.17 12.3057 11.17 12.72V16.5079L15.1113 12.03H13.59C13.1758 12.03 12.84 11.6942 12.84 11.28V7.49203Z" fill="#0469DE"/>
<path fill-rule="evenodd" clip-rule="evenodd" d="M11.97 2.75C6.86137 2.75 2.72 6.89137 2.72 12C2.72 17.1086 6.86137 21.25 11.97 21.25C17.0786 21.25 21.22 17.1086 21.22 12C21.22 6.89137 17.0786 2.75 11.97 2.75ZM1.22 12C1.22 6.06294 6.03294 1.25 11.97 1.25C17.9071 1.25 22.72 6.06294 22.72 12C22.72 17.9371 17.9071 22.75 11.97 22.75C6.03294 22.75 1.22 17.9371 1.22 12Z" fill="#0469DE"/>
</svg>
