<svg width="24" height="24" viewBox="0 0 24 24" fill="none" xmlns="http://www.w3.org/2000/svg">
<path fill-rule="evenodd" clip-rule="evenodd" d="M15.9697 3.96961C17.0926 2.84672 18.9074 2.84672 20.0303 3.96961C21.1532 5.0925 21.1532 6.90738 20.0303 8.03027L7.03033 21.0303C5.90744 22.1532 4.09257 22.1532 2.96967 21.0303C1.84678 19.9074 1.84678 18.0925 2.96967 16.9696L15.9697 3.96961ZM18.9697 5.03027C18.4326 4.49316 17.5674 4.49316 17.0303 5.03027L4.03033 18.0303C3.49323 18.5674 3.49323 19.4325 4.03033 19.9696C4.56744 20.5067 5.43257 20.5067 5.96967 19.9696L18.9697 6.96961C19.5068 6.4325 19.5068 5.56738 18.9697 5.03027Z" fill="#0469DE"/>
<path opacity="0.4" fill-rule="evenodd" clip-rule="evenodd" d="M14.4797 5.45966C14.7726 5.16677 15.2474 5.16677 15.5403 5.45966L18.5403 8.45966C18.8332 8.75255 18.8332 9.22743 18.5403 9.52032C18.2474 9.81321 17.7726 9.81321 17.4797 9.52032L14.4797 6.52032C14.1868 6.22743 14.1868 5.75255 14.4797 5.45966Z" fill="#0469DE"/>
<path opacity="0.4" fill-rule="evenodd" clip-rule="evenodd" d="M6.46966 1.46969C6.66359 1.27575 6.94792 1.20314 7.21109 1.28034L8.49999 1.65842L9.78888 1.28034C10.0521 1.20314 10.3364 1.27575 10.5303 1.46969C10.7243 1.66362 10.7969 1.94795 10.7197 2.21112L10.3416 3.50002L10.7197 4.78891C10.7969 5.05209 10.7243 5.33641 10.5303 5.53035C10.3364 5.72428 10.0521 5.79689 9.78888 5.7197L8.49999 5.34162L7.21109 5.7197C6.94792 5.79689 6.66359 5.72428 6.46966 5.53035C6.27572 5.33641 6.20311 5.05209 6.28031 4.78891L6.65839 3.50002L6.28031 2.21112C6.20311 1.94795 6.27572 1.66362 6.46966 1.46969ZM8.10603 3.10606L8.15966 3.28891C8.2001 3.42675 8.2001 3.57329 8.15966 3.71112L8.10603 3.89398L8.28888 3.84034C8.42672 3.79991 8.57326 3.79991 8.71109 3.84034L8.89395 3.89398L8.84031 3.71112C8.79988 3.57329 8.79988 3.42675 8.84031 3.28891L8.89395 3.10606L8.71109 3.1597C8.57326 3.20013 8.42672 3.20013 8.28888 3.1597L8.10603 3.10606Z" fill="#0469DE"/>
<path opacity="0.4" fill-rule="evenodd" clip-rule="evenodd" d="M2.46966 7.46969C2.66359 7.27575 2.94792 7.20314 3.21109 7.28034L4.49999 7.65842L5.78888 7.28034C6.05206 7.20314 6.33638 7.27575 6.53032 7.46969C6.72425 7.66362 6.79686 7.94795 6.71966 8.21112L6.34159 9.50002L6.71966 10.7889C6.79686 11.0521 6.72425 11.3364 6.53032 11.5303C6.33638 11.7243 6.05206 11.7969 5.78888 11.7197L4.49999 11.3416L3.21109 11.7197C2.94792 11.7969 2.66359 11.7243 2.46966 11.5303C2.27572 11.3364 2.20311 11.0521 2.28031 10.7889L2.65839 9.50002L2.28031 8.21112C2.20311 7.94795 2.27572 7.66362 2.46966 7.46969ZM4.10603 9.10606L4.15966 9.28891C4.2001 9.42675 4.2001 9.57329 4.15966 9.71112L4.10603 9.89398L4.28888 9.84034C4.42672 9.79991 4.57326 9.79991 4.71109 9.84034L4.89395 9.89398L4.84031 9.71112C4.79988 9.57329 4.79988 9.42675 4.84031 9.28891L4.89395 9.10606L4.71109 9.15969C4.57326 9.20013 4.42672 9.20013 4.28888 9.15969L4.10603 9.10606Z" fill="#0469DE"/>
<path opacity="0.4" fill-rule="evenodd" clip-rule="evenodd" d="M17.4697 12.4697C17.6636 12.2758 17.9479 12.2031 18.2111 12.2803L19.5 12.6584L20.7889 12.2803C21.0521 12.2031 21.3364 12.2758 21.5303 12.4697C21.7243 12.6636 21.7969 12.9479 21.7197 13.2111L21.3416 14.5L21.7197 15.7889C21.7969 16.0521 21.7243 16.3364 21.5303 16.5303C21.3364 16.7243 21.0521 16.7969 20.7889 16.7197L19.5 16.3416L18.2111 16.7197C17.9479 16.7969 17.6636 16.7243 17.4697 16.5303C17.2757 16.3364 17.2031 16.0521 17.2803 15.7889L17.6584 14.5L17.2803 13.2111C17.2031 12.9479 17.2757 12.6636 17.4697 12.4697ZM19.106 14.1061L19.1597 14.2889C19.2001 14.4267 19.2001 14.5733 19.1597 14.7111L19.106 14.894L19.2889 14.8403C19.4267 14.7999 19.5733 14.7999 19.7111 14.8403L19.8939 14.894L19.8403 14.7111C19.7999 14.5733 19.7999 14.4267 19.8403 14.2889L19.8939 14.1061L19.7111 14.1597C19.5733 14.2001 19.4267 14.2001 19.2889 14.1597L19.106 14.1061Z" fill="#0469DE"/>
</svg>
