<svg width="176" height="176" viewBox="0 0 176 176" fill="none" xmlns="http://www.w3.org/2000/svg">
<path d="M47.5497 176L65.8669 94.0688H110.134L128.451 176L88.0003 150.207L47.5497 176Z" fill="#FF4C4C"/>
<path d="M50.9688 160.705L47.5493 176L70.7148 161.229C77.4037 148.94 80.5219 137.075 81.5999 117.6L67.9999 116C67.4279 136.474 64.1464 148.118 50.9688 160.705Z" fill="#FFCD00"/>
<path d="M101.795 159.003C107.421 144.055 109.489 133.518 109.6 112L95.1999 118.4C95.7415 133.185 94.4547 141.174 90.4661 151.779L101.795 159.003Z" fill="#FFCD00"/>
<path d="M87.9999 0.0478516L100.092 14.828L117.472 6.69928L121.881 25.2035L141.107 25.3362L136.96 43.8995L154.223 52.2673L142.341 67.2129L154.223 82.1586L136.96 90.5264L141.107 109.09L121.881 109.222L117.472 127.727L100.092 119.598L87.9999 134.378L75.9079 119.598L58.5278 127.727L54.1188 109.222L34.8929 109.09L39.0402 90.5264L21.7765 82.1586L33.6588 67.2129L21.7765 52.2673L39.0402 43.8995L34.8929 25.3362L54.1188 25.2035L58.5278 6.69928L75.9079 14.828L87.9999 0.0478516Z" fill="#FAFCFE"/>
<mask id="mask0_66_6866" style="mask-type:alpha" maskUnits="userSpaceOnUse" x="23" y="1" width="130" height="132">
<path d="M85.5233 3.07518C86.8036 1.51021 89.1964 1.51021 90.4767 3.07518L100.092 14.828L113.914 8.36343C115.751 7.5045 117.913 8.54816 118.383 10.5204L121.881 25.2035L137.141 25.3088C139.181 25.3229 140.687 27.2159 140.242 29.2065L136.96 43.8995L150.627 50.5243C152.472 51.4182 153.012 53.7911 151.737 55.3953L142.341 67.2129L151.737 79.0306C153.012 80.6348 152.472 83.0076 150.627 83.9015L136.96 90.5264L140.242 105.219C140.687 107.21 139.181 109.103 137.141 109.117L121.881 109.222L118.383 123.905C117.913 125.878 115.751 126.921 113.914 126.062L100.092 119.598L90.4767 131.351C89.1964 132.916 86.8036 132.916 85.5233 131.351L75.9079 119.598L62.0859 126.062C60.2494 126.921 58.0873 125.878 57.6174 123.905L54.1188 109.222L38.8586 109.117C36.819 109.103 35.3129 107.21 35.7577 105.219L39.0403 90.5264L25.3726 83.9015C23.5284 83.0076 22.9881 80.6348 24.2635 79.0305L33.6588 67.2129L24.2635 55.3953C22.9881 53.7911 23.5284 51.4182 25.3726 50.5243L39.0403 43.8995L35.7577 29.2065C35.3129 27.2159 36.819 25.3229 38.8586 25.3088L54.1188 25.2035L57.6174 10.5204C58.0873 8.54816 60.2495 7.5045 62.0859 8.36343L75.9079 14.828L85.5233 3.07518Z" fill="#006FFF"/>
</mask>
<g mask="url(#mask0_66_6866)">
<path d="M120.242 25.7007C120.242 23.4032 122.13 21.5407 124.459 21.5407C126.788 21.5407 128.676 23.4032 128.676 25.7007C128.676 27.9982 126.788 29.8607 124.459 29.8607C122.13 29.8607 120.242 27.9982 120.242 25.7007Z" fill="#DFECFB"/>
<path d="M120.593 38.874C120.593 36.7679 122.324 35.0606 124.459 35.0606C126.594 35.0606 128.325 36.7679 128.325 38.874C128.325 40.98 126.594 42.6873 124.459 42.6873C122.324 42.6873 120.593 40.98 120.593 38.874Z" fill="#DFECFB"/>
<path d="M120.945 51.7006C120.945 49.786 122.518 48.2339 124.459 48.2339C126.4 48.2339 127.973 49.786 127.973 51.7006C127.973 53.6152 126.4 55.1672 124.459 55.1672C122.518 55.1672 120.945 53.6152 120.945 51.7006Z" fill="#DFECFB"/>
<path d="M121.647 64.8739C121.647 63.3422 122.906 62.1005 124.459 62.1005C126.012 62.1005 127.27 63.3422 127.27 64.8739C127.27 66.4055 126.012 67.6472 124.459 67.6472C122.906 67.6472 121.647 66.4055 121.647 64.8739Z" fill="#DFECFB"/>
<path d="M121.999 77.7005C121.999 76.3603 123.1 75.2738 124.459 75.2738C125.818 75.2738 126.919 76.3603 126.919 77.7005C126.919 79.0407 125.818 80.1271 124.459 80.1271C123.1 80.1271 121.999 79.0407 121.999 77.7005Z" fill="#DFECFB"/>
<path d="M123.053 90.8738C123.053 90.1079 123.683 89.4871 124.459 89.4871C125.235 89.4871 125.865 90.1079 125.865 90.8738C125.865 91.6396 125.235 92.2604 124.459 92.2604C123.683 92.2604 123.053 91.6396 123.053 90.8738Z" fill="#DFECFB"/>
<path d="M115.322 26.0473C115.322 23.9413 113.591 22.234 111.456 22.234C109.321 22.234 107.59 23.9413 107.59 26.0473C107.59 28.1534 109.321 29.8607 111.456 29.8607C113.591 29.8607 115.322 28.1534 115.322 26.0473Z" fill="#DFECFB"/>
<path d="M122.35 19.2874C122.35 16.8941 120.384 14.9541 117.957 14.9541C115.531 14.9541 113.565 16.8941 113.565 19.2874C113.565 21.6806 115.531 23.6207 117.957 23.6207C120.384 23.6207 122.35 21.6806 122.35 19.2874Z" fill="#DFECFB"/>
<path d="M118.133 41.6473C116.192 41.6473 114.619 43.1994 114.619 45.1139C114.619 47.0285 116.192 48.5806 118.133 48.5806C120.074 48.5806 121.647 47.0285 121.647 45.1139C121.647 43.1994 120.074 41.6473 118.133 41.6473Z" fill="#DFECFB"/>
<path d="M88.6131 13.0474C88.6131 11.0371 86.961 9.40741 84.9231 9.40741C82.8852 9.40741 81.2331 11.0371 81.2331 13.0474C81.2331 15.0577 82.8852 16.6874 84.9231 16.6874C86.961 16.6874 88.6131 15.0577 88.6131 13.0474Z" fill="#DFECFB"/>
<path d="M81.5845 19.634C81.5845 17.8152 80.0898 16.3407 78.2459 16.3407C76.4021 16.3407 74.9074 17.8152 74.9074 19.634C74.9074 21.4529 76.4021 22.9274 78.2459 22.9274C80.0898 22.9274 81.5845 21.4529 81.5845 19.634Z" fill="#DFECFB"/>
<path d="M74.9074 13.0474C74.9074 11.2285 73.4126 9.75408 71.5688 9.75408C69.7249 9.75408 68.2302 11.2285 68.2302 13.0474C68.2302 14.8662 69.7249 16.3407 71.5688 16.3407C73.4126 16.3407 74.9074 14.8662 74.9074 13.0474Z" fill="#DFECFB"/>
<path d="M114.619 52.2206C114.619 50.4017 113.124 48.9273 111.28 48.9273C109.436 48.9273 107.942 50.4017 107.942 52.2206C107.942 54.0394 109.436 55.5139 111.28 55.5139C113.124 55.5139 114.619 54.0394 114.619 52.2206Z" fill="#DFECFB"/>
<path d="M68.2302 6.63409C68.2302 4.91096 66.8141 3.51411 65.0673 3.51411C63.3205 3.51411 61.9045 4.91096 61.9045 6.63409C61.9045 8.35721 63.3205 9.75408 65.0673 9.75408C66.8141 9.75408 68.2302 8.35721 68.2302 6.63409Z" fill="#DFECFB"/>
<path d="M118.133 55.1672C116.386 55.1672 114.97 56.5641 114.97 58.2872C114.97 60.0103 116.386 61.4072 118.133 61.4072C119.88 61.4072 121.296 60.0103 121.296 58.2872C121.296 56.5641 119.88 55.1672 118.133 55.1672Z" fill="#DFECFB"/>
<path d="M120.593 71.2872C120.593 69.8512 119.413 68.6872 117.957 68.6872C116.502 68.6872 115.322 69.8512 115.322 71.2872C115.322 72.7231 116.502 73.8872 117.957 73.8872C119.413 73.8872 120.593 72.7231 120.593 71.2872Z" fill="#DFECFB"/>
<path d="M61.5531 13.0474C61.5531 11.42 60.2157 10.1007 58.5659 10.1007C56.9162 10.1007 55.5788 11.42 55.5788 13.0474C55.5788 14.6748 56.9162 15.9941 58.5659 15.9941C60.2157 15.9941 61.5531 14.6748 61.5531 13.0474Z" fill="#DFECFB"/>
<path d="M114.267 65.0472C114.267 63.4198 112.93 62.1005 111.28 62.1005C109.631 62.1005 108.293 63.4198 108.293 65.0472C108.293 66.6746 109.631 67.9939 111.28 67.9939C112.93 67.9939 114.267 66.6746 114.267 65.0472Z" fill="#DFECFB"/>
<path d="M68.2302 19.4607C68.2302 17.7376 66.8141 16.3407 65.0673 16.3407C63.3205 16.3407 61.9045 17.7376 61.9045 19.4607C61.9045 21.1838 63.3205 22.5807 65.0673 22.5807C66.8141 22.5807 68.2302 21.1838 68.2302 19.4607Z" fill="#DFECFB"/>
<path d="M107.942 58.6339C107.942 56.9108 106.526 55.5139 104.779 55.5139C103.032 55.5139 101.616 56.9108 101.616 58.6339C101.616 60.357 103.032 61.7539 104.779 61.7539C106.526 61.7539 107.942 60.357 107.942 58.6339Z" fill="#DFECFB"/>
<path d="M74.9074 25.874C74.9074 24.0552 73.4126 22.5807 71.5688 22.5807C69.7249 22.5807 68.2302 24.0552 68.2302 25.874C68.2302 27.6929 69.7249 29.1673 71.5688 29.1673C73.4126 29.1673 74.9074 27.6929 74.9074 25.874Z" fill="#DFECFB"/>
<path d="M67.8788 32.634C67.8788 31.1023 66.6201 29.8607 65.0673 29.8607C63.5146 29.8607 62.2559 31.1023 62.2559 32.634C62.2559 34.1657 63.5146 35.4073 65.0673 35.4073C66.6201 35.4073 67.8788 34.1657 67.8788 32.634Z" fill="#DFECFB"/>
<path d="M61.2016 25.874C61.2016 24.4381 60.0216 23.274 58.5659 23.274C57.1102 23.274 55.9302 24.4381 55.9302 25.874C55.9302 27.31 57.1102 28.474 58.5659 28.474C60.0216 28.474 61.2016 27.31 61.2016 25.874Z" fill="#DFECFB"/>
<path d="M100.913 65.0472C100.913 63.6113 99.7331 62.4472 98.2774 62.4472C96.8217 62.4472 95.6417 63.6113 95.6417 65.0472C95.6417 66.4831 96.8217 67.6472 98.2774 67.6472C99.7331 67.6472 100.913 66.4831 100.913 65.0472Z" fill="#DFECFB"/>
<path d="M54.173 19.4607C54.173 18.1205 53.0717 17.034 51.713 17.034C50.3544 17.034 49.253 18.1205 49.253 19.4607C49.253 20.8009 50.3544 21.8874 51.713 21.8874C53.0717 21.8874 54.173 20.8009 54.173 19.4607Z" fill="#DFECFB"/>
<path d="M106.887 71.4605C106.887 70.1203 105.786 69.0339 104.427 69.0339C103.069 69.0339 101.967 70.1203 101.967 71.4605C101.967 72.8007 103.069 73.8872 104.427 73.8872C105.786 73.8872 106.887 72.8007 106.887 71.4605Z" fill="#DFECFB"/>
<path d="M113.565 77.8738C113.565 76.6293 112.542 75.6205 111.28 75.6205C110.019 75.6205 108.996 76.6293 108.996 77.8738C108.996 79.1183 110.019 80.1271 111.28 80.1271C112.542 80.1271 113.565 79.1183 113.565 77.8738Z" fill="#DFECFB"/>
<path d="M118.133 82.5538C117.163 82.5538 116.376 83.3298 116.376 84.2871C116.376 85.2444 117.163 86.0204 118.133 86.0204C119.104 86.0204 119.89 85.2444 119.89 84.2871C119.89 83.3298 119.104 82.5538 118.133 82.5538Z" fill="#DFECFB"/>
<path d="M117.957 96.4204C117.472 96.4204 117.079 96.8084 117.079 97.2871C117.079 97.7657 117.472 98.1537 117.957 98.1537C118.443 98.1537 118.836 97.7657 118.836 97.2871C118.836 96.8084 118.443 96.4204 117.957 96.4204Z" fill="#DFECFB"/>
<path d="M106.185 84.4605C106.185 83.5989 105.477 82.9005 104.603 82.9005C103.73 82.9005 103.022 83.5989 103.022 84.4605C103.022 85.322 103.73 86.0204 104.603 86.0204C105.477 86.0204 106.185 85.322 106.185 84.4605Z" fill="#DFECFB"/>
<path d="M112.51 91.0471C112.51 90.377 111.96 89.8338 111.28 89.8338C110.601 89.8338 110.05 90.377 110.05 91.0471C110.05 91.7172 110.601 92.2604 111.28 92.2604C111.96 92.2604 112.51 91.7172 112.51 91.0471Z" fill="#DFECFB"/>
<path d="M47.1445 26.2207C47.1445 25.1677 46.2791 24.314 45.2116 24.314C44.1441 24.314 43.2787 25.1677 43.2787 26.2207C43.2787 27.2737 44.1441 28.1273 45.2116 28.1273C46.2791 28.1273 47.1445 27.2737 47.1445 26.2207Z" fill="#DFECFB"/>
<path d="M99.8588 78.2205C99.8588 77.1675 98.9935 76.3138 97.926 76.3138C96.8585 76.3138 95.9931 77.1675 95.9931 78.2205C95.9931 79.2735 96.8585 80.1271 97.926 80.1271C98.9935 80.1271 99.8588 79.2735 99.8588 78.2205Z" fill="#DFECFB"/>
<path d="M53.8216 32.634C53.8216 31.4852 52.8776 30.554 51.713 30.554C50.5485 30.554 49.6045 31.4852 49.6045 32.634C49.6045 33.7827 50.5485 34.714 51.713 34.714C52.8776 34.714 53.8216 33.7827 53.8216 32.634Z" fill="#DFECFB"/>
<path d="M93.5331 71.8072C93.5331 70.6584 92.5891 69.7272 91.4245 69.7272C90.26 69.7272 89.316 70.6584 89.316 71.8072C89.316 72.9559 90.26 73.8872 91.4245 73.8872C92.5891 73.8872 93.5331 72.9559 93.5331 71.8072Z" fill="#DFECFB"/>
<path d="M60.8502 39.2206C60.8502 37.8804 59.7488 36.794 58.3902 36.794C57.0316 36.794 55.9302 37.8804 55.9302 39.2206C55.9302 40.5608 57.0316 41.6473 58.3902 41.6473C59.7488 41.6473 60.8502 40.5608 60.8502 39.2206Z" fill="#DFECFB"/>
<path d="M53.4702 45.6339C53.4702 44.7724 52.7622 44.0739 51.8888 44.0739C51.0154 44.0739 50.3073 44.7724 50.3073 45.6339C50.3073 46.4955 51.0154 47.1939 51.8888 47.1939C52.7622 47.1939 53.4702 46.4955 53.4702 45.6339Z" fill="#DFECFB"/>
<path d="M46.793 39.0473C46.793 38.1857 46.085 37.4873 45.2116 37.4873C44.3382 37.4873 43.6302 38.1857 43.6302 39.0473C43.6302 39.9089 44.3382 40.6073 45.2116 40.6073C46.085 40.6073 46.793 39.9089 46.793 39.0473Z" fill="#DFECFB"/>
<path d="M86.5045 78.2205C86.5045 77.3589 85.7965 76.6605 84.9231 76.6605C84.0497 76.6605 83.3417 77.3589 83.3417 78.2205C83.3417 79.082 84.0497 79.7805 84.9231 79.7805C85.7965 79.7805 86.5045 79.082 86.5045 78.2205Z" fill="#DFECFB"/>
<path d="M39.7644 32.4607C39.7644 31.7906 39.2138 31.2473 38.5344 31.2473C37.8551 31.2473 37.3044 31.7906 37.3044 32.4607C37.3044 33.1308 37.8551 33.674 38.5344 33.674C39.2138 33.674 39.7644 33.1308 39.7644 32.4607Z" fill="#DFECFB"/>
<path d="M92.4788 84.4605C92.4788 83.7904 91.9281 83.2471 91.2488 83.2471C90.5695 83.2471 90.0188 83.7904 90.0188 84.4605C90.0188 85.1306 90.5695 85.6738 91.2488 85.6738C91.9281 85.6738 92.4788 85.1306 92.4788 84.4605Z" fill="#DFECFB"/>
<path d="M99.156 90.8738C99.156 90.2994 98.684 89.8338 98.1017 89.8338C97.5194 89.8338 97.0474 90.2994 97.0474 90.8738C97.0474 91.4481 97.5194 91.9138 98.1017 91.9138C98.684 91.9138 99.156 91.4481 99.156 90.8738Z" fill="#DFECFB"/>
<path d="M85.4502 90.8738C85.4502 90.4908 85.1356 90.1804 84.7474 90.1804C84.3592 90.1804 84.0445 90.4908 84.0445 90.8738C84.0445 91.2567 84.3592 91.5671 84.7474 91.5671C85.1356 91.5671 85.4502 91.2567 85.4502 90.8738Z" fill="#DFECFB"/>
<path d="M39.413 45.6339C39.413 45.1553 39.0197 44.7673 38.5344 44.7673C38.0492 44.7673 37.6559 45.1553 37.6559 45.6339C37.6559 46.1126 38.0492 46.5006 38.5344 46.5006C39.0197 46.5006 39.413 46.1126 39.413 45.6339Z" fill="#DFECFB"/>
<path d="M79.1245 84.8071C79.1245 84.3285 78.7312 83.9405 78.2459 83.9405C77.7607 83.9405 77.3674 84.3285 77.3674 84.8071C77.3674 85.2858 77.7607 85.6738 78.2459 85.6738C78.7312 85.6738 79.1245 85.2858 79.1245 84.8071Z" fill="#DFECFB"/>
<path d="M46.0902 52.0472C46.0902 51.4729 45.6182 51.0072 45.0359 51.0072C44.4536 51.0072 43.9816 51.4729 43.9816 52.0472C43.9816 52.6216 44.4536 53.0872 45.0359 53.0872C45.6182 53.0872 46.0902 52.6216 46.0902 52.0472Z" fill="#DFECFB"/>
<path d="M95.2903 6.46076C95.2903 4.25899 93.4808 2.47411 91.2488 2.47411C89.0168 2.47411 87.2074 4.25899 87.2074 6.46076C87.2074 8.66253 89.0168 10.4474 91.2488 10.4474C93.4808 10.4474 95.2903 8.66253 95.2903 6.46076Z" fill="#DFECFB"/>
<path d="M117.957 28.474C115.725 28.474 113.916 30.2589 113.916 32.4607C113.916 34.6624 115.725 36.4473 117.957 36.4473C120.189 36.4473 121.999 34.6624 121.999 32.4607C121.999 30.2589 120.189 28.474 117.957 28.474Z" fill="#DFECFB"/>
<path d="M101.967 13.0474C101.967 10.8456 100.158 9.06075 97.926 9.06075C95.694 9.06075 93.8845 10.8456 93.8845 13.0474C93.8845 15.2492 95.694 17.034 97.926 17.034C100.158 17.034 101.967 15.2492 101.967 13.0474Z" fill="#DFECFB"/>
<path d="M95.2903 19.4607C95.2903 17.3547 93.5595 15.6474 91.4245 15.6474C89.2896 15.6474 87.5588 17.3547 87.5588 19.4607C87.5588 21.5667 89.2896 23.274 91.4245 23.274C93.5595 23.274 95.2903 21.5667 95.2903 19.4607Z" fill="#DFECFB"/>
<path d="M88.2617 26.0473C88.2617 24.1328 86.6883 22.5807 84.7474 22.5807C82.8065 22.5807 81.2331 24.1328 81.2331 26.0473C81.2331 27.9619 82.8065 29.514 84.7474 29.514C86.6883 29.514 88.2617 27.9619 88.2617 26.0473Z" fill="#DFECFB"/>
<path d="M81.5845 32.4607C81.5845 30.6418 80.0898 29.1673 78.2459 29.1673C76.4021 29.1673 74.9074 30.6418 74.9074 32.4607C74.9074 34.2795 76.4021 35.754 78.2459 35.754C80.0898 35.754 81.5845 34.2795 81.5845 32.4607Z" fill="#DFECFB"/>
<path d="M74.5559 39.0473C74.5559 37.4199 73.2185 36.1006 71.5688 36.1006C69.919 36.1006 68.5816 37.4199 68.5816 39.0473C68.5816 40.6747 69.919 41.9939 71.5688 41.9939C73.2185 41.9939 74.5559 40.6747 74.5559 39.0473Z" fill="#DFECFB"/>
<path d="M67.5274 45.4606C67.5274 44.1204 66.426 43.034 65.0673 43.034C63.7087 43.034 62.6073 44.1204 62.6073 45.4606C62.6073 46.8008 63.7087 47.8873 65.0673 47.8873C66.426 47.8873 67.5274 46.8008 67.5274 45.4606Z" fill="#DFECFB"/>
<path d="M60.4988 51.8739C60.4988 50.8209 59.6334 49.9673 58.5659 49.9673C57.4984 49.9673 56.633 50.8209 56.633 51.8739C56.633 52.9269 57.4984 53.7806 58.5659 53.7806C59.6334 53.7806 60.4988 52.9269 60.4988 51.8739Z" fill="#DFECFB"/>
<path d="M53.1188 58.4606C53.1188 57.7905 52.5681 57.2472 51.8888 57.2472C51.2094 57.2472 50.6588 57.7905 50.6588 58.4606C50.6588 59.1307 51.2094 59.6739 51.8888 59.6739C52.5681 59.6739 53.1188 59.1307 53.1188 58.4606Z" fill="#DFECFB"/>
<path d="M122.35 6.63409C122.35 4.14513 120.305 2.12744 117.782 2.12744C115.259 2.12744 113.213 4.14513 113.213 6.63409C113.213 9.12304 115.259 11.1407 117.782 11.1407C120.305 11.1407 122.35 9.12304 122.35 6.63409Z" fill="#DFECFB"/>
<path d="M115.673 13.0474C115.673 10.6542 113.706 8.71408 111.28 8.71408C108.854 8.71408 106.887 10.6542 106.887 13.0474C106.887 15.4406 108.854 17.3807 111.28 17.3807C113.706 17.3807 115.673 15.4406 115.673 13.0474Z" fill="#DFECFB"/>
<path d="M108.645 19.634C108.645 17.4323 106.835 15.6474 104.603 15.6474C102.371 15.6474 100.562 17.4323 100.562 19.634C100.562 21.8358 102.371 23.6207 104.603 23.6207C106.835 23.6207 108.645 21.8358 108.645 19.634Z" fill="#DFECFB"/>
<path d="M101.967 26.0473C101.967 23.9413 100.237 22.234 98.1017 22.234C95.9667 22.234 94.236 23.9413 94.236 26.0473C94.236 28.1534 95.9667 29.8607 98.1017 29.8607C100.237 29.8607 101.967 28.1534 101.967 26.0473Z" fill="#DFECFB"/>
<path d="M114.97 39.2206C114.97 37.1146 113.24 35.4073 111.105 35.4073C108.97 35.4073 107.239 37.1146 107.239 39.2206C107.239 41.3267 108.97 43.034 111.105 43.034C113.24 43.034 114.97 41.3267 114.97 39.2206Z" fill="#DFECFB"/>
<path d="M94.9388 32.634C94.9388 30.7194 93.3654 29.1673 91.4245 29.1673C89.4836 29.1673 87.9102 30.7194 87.9102 32.634C87.9102 34.5486 89.4836 36.1006 91.4245 36.1006C93.3654 36.1006 94.9388 34.5486 94.9388 32.634Z" fill="#DFECFB"/>
<path d="M107.942 45.6339C107.942 43.8151 106.447 42.3406 104.603 42.3406C102.759 42.3406 101.265 43.8151 101.265 45.6339C101.265 47.4528 102.759 48.9273 104.603 48.9273C106.447 48.9273 107.942 47.4528 107.942 45.6339Z" fill="#DFECFB"/>
<path d="M87.9102 39.0473C87.9102 37.2284 86.4155 35.754 84.5717 35.754C82.7278 35.754 81.2331 37.2284 81.2331 39.0473C81.2331 40.8661 82.7278 42.3406 84.5717 42.3406C86.4155 42.3406 87.9102 40.8661 87.9102 39.0473Z" fill="#DFECFB"/>
<path d="M101.265 52.0472C101.265 50.3241 99.8485 48.9273 98.1017 48.9273C96.3549 48.9273 94.9388 50.3241 94.9388 52.0472C94.9388 53.7704 96.3549 55.1672 98.1017 55.1672C99.8485 55.1672 101.265 53.7704 101.265 52.0472Z" fill="#DFECFB"/>
<path d="M81.2331 45.6339C81.2331 44.0066 79.8957 42.6873 78.2459 42.6873C76.5962 42.6873 75.2588 44.0066 75.2588 45.6339C75.2588 47.2613 76.5962 48.5806 78.2459 48.5806C79.8957 48.5806 81.2331 47.2613 81.2331 45.6339Z" fill="#DFECFB"/>
<path d="M94.236 58.6339C94.236 57.1022 92.9772 55.8606 91.4245 55.8606C89.8718 55.8606 88.6131 57.1022 88.6131 58.6339C88.6131 60.1656 89.8718 61.4072 91.4245 61.4072C92.9772 61.4072 94.236 60.1656 94.236 58.6339Z" fill="#DFECFB"/>
<path d="M74.2045 52.0472C74.2045 50.707 73.1031 49.6206 71.7445 49.6206C70.3859 49.6206 69.2845 50.707 69.2845 52.0472C69.2845 53.3874 70.3859 54.4739 71.7445 54.4739C73.1031 54.4739 74.2045 53.3874 74.2045 52.0472Z" fill="#DFECFB"/>
<path d="M87.2074 65.0472C87.2074 63.8027 86.1847 62.7939 84.9231 62.7939C83.6615 62.7939 82.6388 63.8027 82.6388 65.0472C82.6388 66.2917 83.6615 67.3005 84.9231 67.3005C86.1847 67.3005 87.2074 66.2917 87.2074 65.0472Z" fill="#DFECFB"/>
<path d="M67.1759 58.4606C67.1759 57.4075 66.3106 56.5539 65.2431 56.5539C64.1756 56.5539 63.3102 57.4075 63.3102 58.4606C63.3102 59.5136 64.1756 60.3672 65.2431 60.3672C66.3106 60.3672 67.1759 59.5136 67.1759 58.4606Z" fill="#DFECFB"/>
<path d="M80.1788 71.4605C80.1788 70.5032 79.3921 69.7272 78.4217 69.7272C77.4512 69.7272 76.6645 70.5032 76.6645 71.4605C76.6645 72.4178 77.4512 73.1938 78.4217 73.1938C79.3921 73.1938 80.1788 72.4178 80.1788 71.4605Z" fill="#DFECFB"/>
<path d="M59.7959 65.0472C59.7959 64.3771 59.2452 63.8339 58.5659 63.8339C57.8866 63.8339 57.3359 64.3771 57.3359 65.0472C57.3359 65.7173 57.8866 66.2605 58.5659 66.2605C59.2452 66.2605 59.7959 65.7173 59.7959 65.0472Z" fill="#DFECFB"/>
<path d="M72.7988 78.0472C72.7988 77.4728 72.3268 77.0072 71.7445 77.0072C71.1622 77.0072 70.6902 77.4728 70.6902 78.0472C70.6902 78.6215 71.1622 79.0871 71.7445 79.0871C72.3268 79.0871 72.7988 78.6215 72.7988 78.0472Z" fill="#DFECFB"/>
<path d="M108.293 32.634C108.293 30.528 106.562 28.8207 104.427 28.8207C102.292 28.8207 100.562 30.528 100.562 32.634C100.562 34.74 102.292 36.4473 104.427 36.4473C106.562 36.4473 108.293 34.74 108.293 32.634Z" fill="#DFECFB"/>
<path d="M101.616 39.2206C101.616 37.3061 100.043 35.754 98.1017 35.754C96.1608 35.754 94.5874 37.3061 94.5874 39.2206C94.5874 41.1352 96.1608 42.6873 98.1017 42.6873C100.043 42.6873 101.616 41.1352 101.616 39.2206Z" fill="#DFECFB"/>
<path d="M94.5874 45.6339C94.5874 43.8151 93.0927 42.3406 91.2488 42.3406C89.405 42.3406 87.9102 43.8151 87.9102 45.6339C87.9102 47.4528 89.405 48.9273 91.2488 48.9273C93.0927 48.9273 94.5874 47.4528 94.5874 45.6339Z" fill="#DFECFB"/>
<path d="M87.5588 52.3939C87.5588 50.8623 86.3001 49.6206 84.7474 49.6206C83.1947 49.6206 81.936 50.8623 81.936 52.3939C81.936 53.9256 83.1947 55.1672 84.7474 55.1672C86.3001 55.1672 87.5588 53.9256 87.5588 52.3939Z" fill="#DFECFB"/>
<path d="M80.5302 58.8072C80.5302 57.5627 79.5075 56.5539 78.2459 56.5539C76.9844 56.5539 75.9617 57.5627 75.9617 58.8072C75.9617 60.0517 76.9844 61.0605 78.2459 61.0605C79.5075 61.0605 80.5302 60.0517 80.5302 58.8072Z" fill="#DFECFB"/>
<path d="M73.5017 65.0472C73.5017 63.9942 72.6363 63.1405 71.5688 63.1405C70.5013 63.1405 69.6359 63.9942 69.6359 65.0472C69.6359 66.1002 70.5013 66.9539 71.5688 66.9539C72.6363 66.9539 73.5017 66.1002 73.5017 65.0472Z" fill="#DFECFB"/>
<path d="M66.4731 71.8072C66.4731 71.0413 65.8437 70.4205 65.0673 70.4205C64.291 70.4205 63.6616 71.0413 63.6616 71.8072C63.6616 72.573 64.291 73.1938 65.0673 73.1938C65.8437 73.1938 66.4731 72.573 66.4731 71.8072Z" fill="#DFECFB"/>
<path d="M133.947 26.0473C133.947 23.9413 135.678 22.234 137.813 22.234C139.948 22.234 141.679 23.9413 141.679 26.0473C141.679 28.1534 139.948 29.8607 137.813 29.8607C135.678 29.8607 133.947 28.1534 133.947 26.0473Z" fill="#DFECFB"/>
<path d="M131.136 41.6473C133.077 41.6473 134.65 43.1994 134.65 45.1139C134.65 47.0285 133.077 48.5806 131.136 48.5806C129.195 48.5806 127.622 47.0285 127.622 45.1139C127.622 43.1994 129.195 41.6473 131.136 41.6473Z" fill="#DFECFB"/>
<path d="M134.65 52.2206C134.65 50.4017 136.145 48.9273 137.989 48.9273C139.833 48.9273 141.327 50.4017 141.327 52.2206C141.327 54.0394 139.833 55.5139 137.989 55.5139C136.145 55.5139 134.65 54.0394 134.65 52.2206Z" fill="#DFECFB"/>
<path d="M131.136 55.1672C132.883 55.1672 134.299 56.5641 134.299 58.2872C134.299 60.0103 132.883 61.4072 131.136 61.4072C129.389 61.4072 127.973 60.0103 127.973 58.2872C127.973 56.5641 129.389 55.1672 131.136 55.1672Z" fill="#DFECFB"/>
<path d="M128.676 71.2872C128.676 69.8512 129.856 68.6872 131.312 68.6872C132.767 68.6872 133.947 69.8512 133.947 71.2872C133.947 72.7231 132.767 73.8872 131.312 73.8872C129.856 73.8872 128.676 72.7231 128.676 71.2872Z" fill="#DFECFB"/>
<path d="M135.002 65.0472C135.002 63.4198 136.339 62.1005 137.989 62.1005C139.639 62.1005 140.976 63.4198 140.976 65.0472C140.976 66.6746 139.639 67.9939 137.989 67.9939C136.339 67.9939 135.002 66.6746 135.002 65.0472Z" fill="#DFECFB"/>
<path d="M141.327 58.6339C141.327 56.9108 142.744 55.5139 144.49 55.5139C146.237 55.5139 147.653 56.9108 147.653 58.6339C147.653 60.357 146.237 61.7539 144.49 61.7539C142.744 61.7539 141.327 60.357 141.327 58.6339Z" fill="#DFECFB"/>
<path d="M142.382 71.4605C142.382 70.1203 143.483 69.0339 144.842 69.0339C146.2 69.0339 147.302 70.1203 147.302 71.4605C147.302 72.8007 146.2 73.8872 144.842 73.8872C143.483 73.8872 142.382 72.8007 142.382 71.4605Z" fill="#DFECFB"/>
<path d="M135.705 77.8738C135.705 76.6293 136.727 75.6205 137.989 75.6205C139.25 75.6205 140.273 76.6293 140.273 77.8738C140.273 79.1183 139.25 80.1271 137.989 80.1271C136.727 80.1271 135.705 79.1183 135.705 77.8738Z" fill="#DFECFB"/>
<path d="M131.136 82.5538C132.106 82.5538 132.893 83.3298 132.893 84.2871C132.893 85.2444 132.106 86.0204 131.136 86.0204C130.166 86.0204 129.379 85.2444 129.379 84.2871C129.379 83.3298 130.166 82.5538 131.136 82.5538Z" fill="#DFECFB"/>
<path d="M131.312 96.4204C131.797 96.4204 132.19 96.8084 132.19 97.2871C132.19 97.7657 131.797 98.1537 131.312 98.1537C130.827 98.1537 130.433 97.7657 130.433 97.2871C130.433 96.8084 130.827 96.4204 131.312 96.4204Z" fill="#DFECFB"/>
<path d="M143.085 84.4605C143.085 83.5989 143.793 82.9005 144.666 82.9005C145.539 82.9005 146.247 83.5989 146.247 84.4605C146.247 85.322 145.539 86.0204 144.666 86.0204C143.793 86.0204 143.085 85.322 143.085 84.4605Z" fill="#DFECFB"/>
<path d="M136.759 91.0471C136.759 90.377 137.31 89.8338 137.989 89.8338C138.668 89.8338 139.219 90.377 139.219 91.0471C139.219 91.7172 138.668 92.2604 137.989 92.2604C137.31 92.2604 136.759 91.7172 136.759 91.0471Z" fill="#DFECFB"/>
<path d="M149.41 78.2205C149.41 77.1675 150.276 76.3138 151.343 76.3138C152.411 76.3138 153.276 77.1675 153.276 78.2205C153.276 79.2735 152.411 80.1271 151.343 80.1271C150.276 80.1271 149.41 79.2735 149.41 78.2205Z" fill="#DFECFB"/>
<path d="M131.312 28.474C133.544 28.474 135.353 30.2589 135.353 32.4607C135.353 34.6624 133.544 36.4473 131.312 36.4473C129.08 36.4473 127.27 34.6624 127.27 32.4607C127.27 30.2589 129.08 28.474 131.312 28.474Z" fill="#DFECFB"/>
<path d="M134.299 39.2206C134.299 37.1146 136.03 35.4073 138.165 35.4073C140.3 35.4073 142.03 37.1146 142.03 39.2206C142.03 41.3267 140.3 43.034 138.165 43.034C136.03 43.034 134.299 41.3267 134.299 39.2206Z" fill="#DFECFB"/>
<path d="M141.327 45.6339C141.327 43.8151 142.822 42.3406 144.666 42.3406C146.51 42.3406 148.005 43.8151 148.005 45.6339C148.005 47.4528 146.51 48.9273 144.666 48.9273C142.822 48.9273 141.327 47.4528 141.327 45.6339Z" fill="#DFECFB"/>
<path d="M148.005 52.0472C148.005 50.3241 149.421 48.9273 151.167 48.9273C152.914 48.9273 154.33 50.3241 154.33 52.0472C154.33 53.7704 152.914 55.1672 151.167 55.1672C149.421 55.1672 148.005 53.7704 148.005 52.0472Z" fill="#DFECFB"/>
</g>
<ellipse cx="88.7633" cy="66.7582" rx="38.1609" ry="37.931" fill="#0456B8"/>
<path d="M109.812 35.3194V39.7662L107.463 42.3459L111.533 52.6646V56.1042L112.394 61.2636L116.697 67.2829V71.5824L118.418 73.3022L119.278 77.6017L123.606 81.3854C121.082 87.4158 117.045 92.6564 111.968 96.6329L109.812 93.9397H107.23V86.2007L104.649 79.3215L101.206 77.6017V73.3022L97.7642 69.8626V67.2829L95.1825 63.8433V59.5438L92.6008 54.3844L90.8797 49.2251L87.4374 48.3652L83.9951 50.9448L78.8317 45.7855H75.3895L73.6683 42.3459L75.3895 39.7662L72.8693 32.2114C77.6532 30.0378 82.9682 28.8271 88.566 28.8271C92.7892 28.8271 96.8514 29.5162 100.646 30.7879L100.346 32.887L102.928 34.6068V37.1865L106.694 33.4231C107.766 34.0061 108.806 34.6393 109.812 35.3194Z" fill="#0469DE"/>
<path d="M55.8589 47.4906L57.3176 48.3652L59.0387 46.6454L60.7599 50.0849L65.0627 49.2251L66.7838 52.6646L75.3895 56.1042L77.1106 61.2636L77.9712 66.423L80.5529 68.1428L81.4134 71.5824L83.9951 75.022L86.5768 75.8819V80.1814L90.0191 81.9012L92.6008 88.7803L96.043 89.9061V93.9397L103.179 101.783C102.233 102.178 101.267 102.536 100.284 102.854L96.9036 99.959L95.1825 100.819L90.8797 97.3793V93.38L86.5768 89.9061L79.6923 81.9012L77.1106 75.645L71.9472 65.5631L70.2261 66.423L66.7838 63.8433L65.9233 59.5438L58.1782 60.4037L54.7359 55.2443L52.8617 53.8398C53.6667 51.6196 54.6731 49.4959 55.8589 47.4906Z" fill="#0469DE"/>
<path d="M50.6445 64.9592L54.3085 66.423L54.7359 71.5824H56.457L61.6204 75.8819L60.7599 79.3215L63.3416 85.3408L66.7838 84.4809L69.3655 85.3408L71.9472 87.0606V92.2199L75.3895 89.9061L78.8317 94.7996L81.4134 101.679H84.8557L87.8684 104.689C67.2236 104.317 50.6024 87.4789 50.6024 66.7613C50.6024 66.1572 50.6165 65.5564 50.6445 64.9592Z" fill="#0469DE"/>
</svg>
