<svg width="24" height="24" viewBox="0 0 24 24" fill="none" xmlns="http://www.w3.org/2000/svg">
<path fill-rule="evenodd" clip-rule="evenodd" d="M3.90533 4.33526C3.18991 5.05068 2.75 6.10037 2.75 7.42993V13.43C2.75 14.7596 3.18991 15.8092 3.90533 16.5247C4.62075 17.2401 5.67044 17.68 7 17.68C7.41421 17.68 7.75 18.0158 7.75 18.43V20.56C7.75 20.757 7.96905 20.8759 8.13396 20.7659L12.5846 17.8055C12.7077 17.7237 12.8522 17.68 13 17.68H17C18.3296 17.68 19.3793 17.2401 20.0947 16.5247C20.8101 15.8092 21.25 14.7596 21.25 13.43V7.42993C21.25 6.10037 20.8101 5.05068 20.0947 4.33526C19.3793 3.61985 18.3296 3.17993 17 3.17993H7C5.67044 3.17993 4.62075 3.61985 3.90533 4.33526ZM2.84467 3.2746C3.87925 2.24002 5.32956 1.67993 7 1.67993H17C18.6704 1.67993 20.1207 2.24002 21.1553 3.2746C22.1899 4.30919 22.75 5.7595 22.75 7.42993V13.43C22.75 15.1004 22.1899 16.5507 21.1553 17.5853C20.1207 18.6199 18.6704 19.18 17 19.18H13.2267L8.96601 22.014C7.81099 22.7833 6.25 21.9628 6.25 20.56V19.141C4.89583 18.9977 3.72109 18.4617 2.84467 17.5853C1.81009 16.5507 1.25 15.1004 1.25 13.43V7.42993C1.25 5.7595 1.81009 4.30919 2.84467 3.2746Z" fill="#0469DE"/>
<path opacity="0.4" fill-rule="evenodd" clip-rule="evenodd" d="M9.59003 8.52002C9.59003 7.18584 10.6658 6.10999 12 6.10999C13.3342 6.10999 14.41 7.18584 14.41 8.52002C14.41 9.57292 13.7177 10.1286 13.2647 10.4382C13.0703 10.5725 12.945 10.6782 12.8638 10.7871C12.7963 10.8775 12.75 10.9821 12.75 11.15V11.36C12.75 11.7742 12.4142 12.11 12 12.11C11.5858 12.11 11.25 11.7742 11.25 11.36V11.15C11.25 10.0732 11.9587 9.51714 12.4139 9.20283L12.4171 9.20065L12.4171 9.20066C12.6022 9.0742 12.7234 8.97096 12.8011 8.86603C12.8662 8.77816 12.91 8.67775 12.91 8.52002C12.91 8.0142 12.5058 7.60999 12 7.60999C11.4942 7.60999 11.09 8.0142 11.09 8.52002C11.09 8.93423 10.7542 9.27002 10.34 9.27002C9.92581 9.27002 9.59003 8.93423 9.59003 8.52002Z" fill="#0469DE"/>
<path opacity="0.4" fill-rule="evenodd" clip-rule="evenodd" d="M11.2455 13.75C11.2455 13.3358 11.5813 13 11.9955 13H12.0045C12.4187 13 12.7545 13.3358 12.7545 13.75C12.7545 14.1642 12.4187 14.5 12.0045 14.5H11.9955C11.5813 14.5 11.2455 14.1642 11.2455 13.75Z" fill="#0469DE"/>
</svg>
