<svg width="24" height="24" viewBox="0 0 24 24" fill="none" xmlns="http://www.w3.org/2000/svg">
<path fill-rule="evenodd" clip-rule="evenodd" d="M5.25 8C5.25 4.27579 8.27579 1.25 12 1.25C15.7242 1.25 18.75 4.27579 18.75 8V13C18.75 16.7242 15.7242 19.75 12 19.75C8.27579 19.75 5.25 16.7242 5.25 13V8ZM12 2.75C9.10421 2.75 6.75 5.10421 6.75 8V13C6.75 15.8958 9.10421 18.25 12 18.25C14.8958 18.25 17.25 15.8958 17.25 13V8C17.25 5.10421 14.8958 2.75 12 2.75Z" fill="#0469DE"/>
<path opacity="0.4" fill-rule="evenodd" clip-rule="evenodd" d="M3 10.25C3.41421 10.25 3.75 10.5858 3.75 11V13C3.75 17.5558 7.44421 21.25 12 21.25C16.5558 21.25 20.25 17.5558 20.25 13V11C20.25 10.5858 20.5858 10.25 21 10.25C21.4142 10.25 21.75 10.5858 21.75 11V13C21.75 18.3842 17.3842 22.75 12 22.75C6.61579 22.75 2.25 18.3842 2.25 13V11C2.25 10.5858 2.58579 10.25 3 10.25Z" fill="#0469DE"/>
<path opacity="0.4" fill-rule="evenodd" clip-rule="evenodd" d="M14.3527 8.18455C12.7389 7.59522 10.9811 7.59522 9.36724 8.18455C8.97815 8.32663 8.54756 8.1264 8.40548 7.73731C8.2634 7.34823 8.46363 6.91764 8.85272 6.77556C10.7989 6.06489 12.9211 6.06489 14.8672 6.77556C15.2563 6.91764 15.4566 7.34823 15.3145 7.73731C15.1724 8.1264 14.7418 8.32663 14.3527 8.18455Z" fill="#0469DE"/>
<path opacity="0.4" fill-rule="evenodd" clip-rule="evenodd" d="M13.5011 11.2032C12.4313 10.909 11.2987 10.909 10.2289 11.2032C9.82949 11.313 9.41668 11.0783 9.30685 10.6789C9.19702 10.2795 9.43175 9.86672 9.83114 9.75689C11.1613 9.3911 12.5687 9.3911 13.8989 9.75689C14.2983 9.86672 14.533 10.2795 14.4232 10.6789C14.3133 11.0783 13.9005 11.313 13.5011 11.2032Z" fill="#0469DE"/>
</svg>
