<svg width="24" height="24" viewBox="0 0 24 24" fill="none" xmlns="http://www.w3.org/2000/svg">
<path fill-rule="evenodd" clip-rule="evenodd" d="M3.88534 5.2371C3.20538 5.86848 2.75 6.89295 2.75 8.5V15.5C2.75 17.107 3.20538 18.1315 3.88534 18.7629C4.57535 19.4036 5.61497 19.75 7 19.75H17C18.385 19.75 19.4246 19.4036 20.1147 18.7629C20.7946 18.1315 21.25 17.107 21.25 15.5V8.5C21.25 6.89295 20.7946 5.86848 20.1147 5.2371C19.4246 4.59637 18.385 4.25 17 4.25H7C5.61497 4.25 4.57535 4.59637 3.88534 5.2371ZM2.86466 4.1379C3.92465 3.15363 5.38503 2.75 7 2.75H17C18.615 2.75 20.0754 3.15363 21.1353 4.1379C22.2054 5.13152 22.75 6.60705 22.75 8.5V15.5C22.75 17.393 22.2054 18.8685 21.1353 19.8621C20.0754 20.8464 18.615 21.25 17 21.25H7C5.38503 21.25 3.92465 20.8464 2.86466 19.8621C1.79462 18.8685 1.25 17.393 1.25 15.5V8.5C1.25 6.60705 1.79462 5.13152 2.86466 4.1379Z" fill="#0469DE"/>
<path fill-rule="evenodd" clip-rule="evenodd" d="M12 9.75C10.7574 9.75 9.75 10.7574 9.75 12C9.75 13.2426 10.7574 14.25 12 14.25C13.2426 14.25 14.25 13.2426 14.25 12C14.25 10.7574 13.2426 9.75 12 9.75ZM8.25 12C8.25 9.92893 9.92893 8.25 12 8.25C14.0711 8.25 15.75 9.92893 15.75 12C15.75 14.0711 14.0711 15.75 12 15.75C9.92893 15.75 8.25 14.0711 8.25 12Z" fill="#0469DE"/>
<path opacity="0.4" fill-rule="evenodd" clip-rule="evenodd" d="M7 3.25C7.41421 3.25 7.75 3.58579 7.75 4V5C7.75 6.54155 7.50275 7.80791 6.65533 8.65533C5.80791 9.50275 4.54155 9.75 3 9.75H2C1.58579 9.75 1.25 9.41421 1.25 9C1.25 8.58579 1.58579 8.25 2 8.25H3C4.45845 8.25 5.19209 7.99725 5.59467 7.59467C5.99725 7.19209 6.25 6.45845 6.25 5V4C6.25 3.58579 6.58579 3.25 7 3.25Z" fill="#0469DE"/>
<path opacity="0.4" fill-rule="evenodd" clip-rule="evenodd" d="M17 3.25C17.4142 3.25 17.75 3.58579 17.75 4V5C17.75 6.45845 18.0028 7.19209 18.4053 7.59467C18.8079 7.99725 19.5415 8.25 21 8.25H22C22.4142 8.25 22.75 8.58579 22.75 9C22.75 9.41421 22.4142 9.75 22 9.75H21C19.4585 9.75 18.1921 9.50275 17.3447 8.65533C16.4972 7.80791 16.25 6.54155 16.25 5V4C16.25 3.58579 16.5858 3.25 17 3.25Z" fill="#0469DE"/>
<path opacity="0.4" fill-rule="evenodd" clip-rule="evenodd" d="M1.25 15C1.25 14.5858 1.58579 14.25 2 14.25H3C4.54155 14.25 5.80791 14.4972 6.65533 15.3447C7.50275 16.1921 7.75 17.4585 7.75 19V20C7.75 20.4142 7.41421 20.75 7 20.75C6.58579 20.75 6.25 20.4142 6.25 20V19C6.25 17.5415 5.99725 16.8079 5.59467 16.4053C5.19209 16.0028 4.45845 15.75 3 15.75H2C1.58579 15.75 1.25 15.4142 1.25 15Z" fill="#0469DE"/>
<path opacity="0.4" fill-rule="evenodd" clip-rule="evenodd" d="M17.3447 15.3447C18.1921 14.4972 19.4585 14.25 21 14.25H22C22.4142 14.25 22.75 14.5858 22.75 15C22.75 15.4142 22.4142 15.75 22 15.75H21C19.5415 15.75 18.8079 16.0028 18.4053 16.4053C18.0028 16.8079 17.75 17.5415 17.75 19V20C17.75 20.4142 17.4142 20.75 17 20.75C16.5858 20.75 16.25 20.4142 16.25 20V19C16.25 17.4585 16.4972 16.1921 17.3447 15.3447Z" fill="#0469DE"/>
</svg>
