<svg width="176" height="176" viewBox="0 0 176 176" fill="none" xmlns="http://www.w3.org/2000/svg">
<path d="M78.3906 44.3481L131.933 97.8909L63.9196 165.905L10.3768 112.362L78.3906 44.3481Z" fill="#0469DE"/>
<path d="M94.3088 28.4307L147.852 81.9734L131.933 97.8916L78.3907 44.3488L94.3088 28.4307Z" fill="#FFA34F"/>
<path d="M100.097 34.2192L118.909 53.0316L102.991 68.9497L84.179 50.1374L100.097 34.2192Z" fill="#FFC700"/>
<path d="M134.828 68.9497L142.063 76.1852L126.145 92.1033L118.909 84.8678L134.828 68.9497Z" fill="#FFC700"/>
<path d="M167.76 46.8918L129.39 8.52137C125.953 5.08475 120.381 5.08476 116.945 8.52137L95.6723 29.7938L146.488 80.6093L167.76 59.3369C171.197 55.9003 171.197 50.3284 167.76 46.8918Z" fill="#FAFCFE"/>
<path d="M135.719 28.7137C139.156 25.2771 144.728 25.2771 148.164 28.7137L160.945 41.4942C164.382 44.9308 164.382 50.5027 160.945 53.9393L140.381 74.503L115.156 49.2774L135.719 28.7137Z" fill="#DCDCDC"/>
<path d="M146.488 80.6093L167.76 59.3369C171.197 55.9003 171.197 50.3284 167.76 46.8918L129.39 8.52137C125.953 5.08475 120.381 5.08476 116.945 8.52137L95.6723 29.7938" stroke="#CFCFCF" stroke-width="4.4"/>
<path d="M63.9197 165.905L11.9115 173.676C6.47064 174.489 1.7926 169.811 2.60561 164.37L10.377 112.362L63.9197 165.905Z" fill="#FFC700"/>
<path d="M5.4856 145.096L2.60546 164.371C1.79245 169.812 6.47049 174.49 11.9114 173.677L31.1861 170.797L5.4856 145.096Z" fill="#06192F"/>
<path d="M86.3498 62.4377C85.151 63.6366 83.2074 63.6366 82.0085 62.4377C80.8097 61.2389 80.8097 59.2953 82.0085 58.0964C83.2074 56.8976 85.151 56.8976 86.3498 58.0964C87.5487 59.2953 87.5487 61.2389 86.3498 62.4377Z" fill="#9DC8FF"/>
<path d="M53.0665 102.957C54.2653 104.155 56.209 104.155 57.4078 102.957C58.6066 101.758 58.6066 99.8141 57.4078 98.6153C56.209 97.4165 54.2653 97.4165 53.0665 98.6153C51.8677 99.8141 51.8677 101.758 53.0665 102.957Z" fill="#9DC8FF"/>
<path d="M35.7013 108.745C36.9001 109.944 38.8438 109.944 40.0426 108.745C41.2414 107.546 41.2414 105.603 40.0426 104.404C38.8438 103.205 36.9001 103.205 35.7013 104.404C34.5025 105.603 34.5025 107.546 35.7013 108.745Z" fill="#9DC8FF"/>
<path d="M50.1723 118.875C48.9735 120.074 47.0298 120.074 45.831 118.875C44.6322 117.676 44.6322 115.732 45.831 114.533C47.0298 113.335 48.9735 113.335 50.1723 114.533C51.3711 115.732 51.3711 117.676 50.1723 118.875Z" fill="#9DC8FF"/>
<path d="M63.1962 113.086C64.395 114.285 66.3387 114.285 67.5375 113.086C68.7363 111.887 68.7363 109.944 67.5375 108.745C66.3387 107.546 64.395 107.546 63.1962 108.745C61.9974 109.944 61.9974 111.887 63.1962 113.086Z" fill="#9DC8FF"/>
<path d="M29.9129 98.6153C28.714 99.8141 26.7704 99.8141 25.5716 98.6153C25.3179 98.3616 25.1178 98.0745 24.9715 97.7682L29.0658 93.674C29.3721 93.8202 29.6592 94.0203 29.9129 94.274C31.1117 95.4728 31.1117 97.4165 29.9129 98.6153Z" fill="#9DC8FF"/>
<path d="M48.1252 74.6146C48.2714 74.9209 48.4715 75.208 48.7252 75.4617C49.924 76.6605 51.8677 76.6605 53.0665 75.4617C54.2653 74.2628 54.2653 72.3192 53.0665 71.1204C52.8128 70.8667 52.5257 70.6666 52.2194 70.5203L48.1252 74.6146Z" fill="#9DC8FF"/>
<path d="M71.2788 51.4609C71.4251 51.7672 71.6252 52.0544 71.8788 52.308C73.0776 53.5068 75.0213 53.5068 76.2201 52.308C77.419 51.1092 77.419 49.1655 76.2201 47.9667C75.9665 47.713 75.6793 47.513 75.3731 47.3667L71.2788 51.4609Z" fill="#9DC8FF"/>
<path d="M126.869 102.957C128.068 101.758 128.068 99.8141 126.869 98.6153C125.67 97.4165 123.726 97.4165 122.527 98.6153C121.329 99.8141 121.329 101.758 122.527 102.957C123.726 104.155 125.67 104.155 126.869 102.957Z" fill="#9DC8FF"/>
<path d="M103.715 126.11C102.516 127.309 100.573 127.309 99.3738 126.11C98.1749 124.911 98.1749 122.968 99.3738 121.769C100.573 120.57 102.516 120.57 103.715 121.769C104.914 122.968 104.914 124.911 103.715 126.11Z" fill="#9DC8FF"/>
<path d="M80.5614 149.264C79.3626 150.463 77.419 150.463 76.2201 149.264C75.0213 148.065 75.0213 146.121 76.2201 144.923C77.419 143.724 79.3626 143.724 80.5614 144.923C81.7603 146.121 81.7603 148.065 80.5614 149.264Z" fill="#9DC8FF"/>
<path d="M42.9368 92.8269C44.1356 94.0257 46.0793 94.0257 47.2781 92.8269C48.4769 91.6281 48.4769 89.6844 47.2781 88.4856C46.0793 87.2868 44.1356 87.2868 42.9368 88.4856C41.738 89.6844 41.738 91.6281 42.9368 92.8269Z" fill="#9DC8FF"/>
<path d="M60.302 129.004C59.1032 130.203 57.1595 130.203 55.9607 129.004C54.7619 127.806 54.7619 125.862 55.9607 124.663C57.1595 123.464 59.1032 123.464 60.302 124.663C61.5008 125.862 61.5008 127.806 60.302 129.004Z" fill="#9DC8FF"/>
<path d="M73.3259 123.216C74.5248 124.415 76.4684 124.415 77.6672 123.216C78.8661 122.017 78.8661 120.074 77.6672 118.875C76.4684 117.676 74.5248 117.676 73.3259 118.875C72.1271 120.074 72.1271 122.017 73.3259 123.216Z" fill="#9DC8FF"/>
<path d="M70.4317 139.134C69.2329 140.333 67.2892 140.333 66.0904 139.134C64.8916 137.935 64.8916 135.992 66.0904 134.793C67.2892 133.594 69.2329 133.594 70.4317 134.793C71.6305 135.992 71.6305 137.935 70.4317 139.134Z" fill="#9DC8FF"/>
<path d="M83.4556 133.346C84.6545 134.545 86.5981 134.545 87.797 133.346C88.9958 132.147 88.9958 130.203 87.797 129.004C86.5981 127.806 84.6545 127.806 83.4556 129.004C82.2568 130.203 82.2568 132.147 83.4556 133.346Z" fill="#9DC8FF"/>
<path d="M29.9129 126.11C31.1117 127.309 33.0553 127.309 34.2542 126.11C35.453 124.911 35.453 122.968 34.2542 121.769C33.0553 120.57 31.1117 120.57 29.9129 121.769C28.714 122.968 28.714 124.911 29.9129 126.11Z" fill="#9DC8FF"/>
<path d="M40.0426 136.24C41.2414 137.439 43.1851 137.439 44.3839 136.24C45.5827 135.041 45.5827 133.097 44.3839 131.899C43.1851 130.7 41.2414 130.7 40.0426 131.899C38.8438 133.097 38.8438 135.041 40.0426 136.24Z" fill="#9DC8FF"/>
<path d="M19.7832 115.981C20.982 117.179 22.9256 117.179 24.1245 115.981C25.3233 114.782 25.3233 112.838 24.1245 111.639C22.9256 110.44 20.982 110.44 19.7832 111.639C18.5843 112.838 18.5843 114.782 19.7832 115.981Z" fill="#9DC8FF"/>
<path d="M50.1723 146.37C51.3711 147.568 53.3148 147.568 54.5136 146.37C55.7124 145.171 55.7124 143.227 54.5136 142.028C53.3148 140.83 51.3711 140.83 50.1723 142.028C48.9735 143.227 48.9735 145.171 50.1723 146.37Z" fill="#9DC8FF"/>
<path d="M60.302 156.499C61.5008 157.698 63.4445 157.698 64.6433 156.499C65.8421 155.301 65.8421 153.357 64.6433 152.158C63.4445 150.959 61.5008 150.959 60.302 152.158C59.1032 153.357 59.1032 155.301 60.302 156.499Z" fill="#9DC8FF"/>
<path d="M96.4796 72.5675C95.2807 73.7663 93.3371 73.7663 92.1383 72.5675C90.9394 71.3686 90.9394 69.425 92.1383 68.2261C93.3371 67.0273 95.2807 67.0273 96.4796 68.2261C97.6784 69.425 97.6784 71.3686 96.4796 72.5675Z" fill="#9DC8FF"/>
<path d="M106.609 82.6972C105.41 83.896 103.467 83.896 102.268 82.6972C101.069 81.4983 101.069 79.5547 102.268 78.3559C103.467 77.157 105.41 77.157 106.609 78.3559C107.808 79.5547 107.808 81.4983 106.609 82.6972Z" fill="#9DC8FF"/>
<path d="M116.739 92.8269C115.54 94.0257 113.597 94.0257 112.398 92.8269C111.199 91.6281 111.199 89.6844 112.398 88.4856C113.597 87.2868 115.54 87.2868 116.739 88.4856C117.938 89.6844 117.938 91.6281 116.739 92.8269Z" fill="#9DC8FF"/>
<path d="M63.1962 85.5914C61.9974 86.7902 60.0537 86.7902 58.8549 85.5914C57.6561 84.3926 57.6561 82.4489 58.8549 81.2501C60.0537 80.0512 61.9974 80.0512 63.1962 81.2501C64.395 82.4489 64.395 84.3926 63.1962 85.5914Z" fill="#9DC8FF"/>
<path d="M76.2201 79.803C77.419 81.0018 79.3626 81.0018 80.5614 79.803C81.7603 78.6041 81.7603 76.6605 80.5614 75.4617C79.3626 74.2628 77.419 74.2628 76.2201 75.4617C75.0213 76.6605 75.0213 78.6041 76.2201 79.803Z" fill="#9DC8FF"/>
<path d="M73.3259 95.7211C72.1271 96.9199 70.1834 96.9199 68.9846 95.7211C67.7858 94.5223 67.7858 92.5786 68.9846 91.3798C70.1834 90.181 72.1271 90.181 73.3259 91.3798C74.5248 92.5786 74.5248 94.5223 73.3259 95.7211Z" fill="#9DC8FF"/>
<path d="M86.3498 89.9327C87.5487 91.1315 89.4923 91.1315 90.6912 89.9327C91.89 88.7339 91.89 86.7902 90.6912 85.5914C89.4923 84.3926 87.5487 84.3926 86.3498 85.5914C85.151 86.7902 85.151 88.7339 86.3498 89.9327Z" fill="#9DC8FF"/>
<path d="M66.0904 69.6733C67.2892 70.8721 69.2329 70.8721 70.4317 69.6733C71.6305 68.4744 71.6305 66.5308 70.4317 65.3319C69.2329 64.1331 67.2892 64.1331 66.0904 65.3319C64.8916 66.5308 64.8916 68.4744 66.0904 69.6733Z" fill="#9DC8FF"/>
<path d="M83.4556 105.851C82.2568 107.05 80.3132 107.05 79.1143 105.851C77.9155 104.652 77.9155 102.708 79.1143 101.51C80.3132 100.311 82.2568 100.311 83.4556 101.51C84.6545 102.708 84.6545 104.652 83.4556 105.851Z" fill="#9DC8FF"/>
<path d="M96.4796 100.062C97.6784 101.261 99.622 101.261 100.821 100.062C102.02 98.8636 102.02 96.9199 100.821 95.7211C99.622 94.5223 97.6784 94.5223 96.4796 95.7211C95.2807 96.9199 95.2807 98.8636 96.4796 100.062Z" fill="#9DC8FF"/>
<path d="M93.5854 115.981C92.3865 117.179 90.4429 117.179 89.2441 115.981C88.0452 114.782 88.0452 112.838 89.2441 111.639C90.4429 110.44 92.3865 110.44 93.5854 111.639C94.7842 112.838 94.7842 114.782 93.5854 115.981Z" fill="#9DC8FF"/>
<path d="M106.609 110.192C107.808 111.391 109.752 111.391 110.951 110.192C112.149 108.993 112.149 107.05 110.951 105.851C109.752 104.652 107.808 104.652 106.609 105.851C105.41 107.05 105.41 108.993 106.609 110.192Z" fill="#9DC8FF"/>
</svg>
