<svg width="176" height="176" viewBox="0 0 176 176" fill="none" xmlns="http://www.w3.org/2000/svg">
<path d="M174.627 76.82C178.868 125.969 146.634 173.969 95.7401 175.923C47.7607 177.765 6.18189 146.393 1.58587 100.991C-3.01016 55.5894 19.4183 9.34761 69.4643 1.30289C124.6 -7.55996 170.588 30.018 174.627 76.82Z" fill="#0469DE"/>
<path d="M85.6292 22.7658C88.8369 15.4513 92.0942 8.02354 95.6235 0.516599C87.2436 -0.353659 78.4761 -0.145731 69.4643 1.3029C66.1494 1.83575 62.9557 2.53618 59.883 3.39284C47.715 28.8104 33.1847 43.6236 4.07063 63.6094C1.12637 75.5689 0.302424 88.3129 1.58587 100.991C2.39472 108.982 4.34903 116.538 7.28208 123.554C53.3708 96.325 68.8185 61.0994 85.6292 22.7658Z" fill="#0456B8"/>
<path d="M172.932 66.0582C173.742 69.5777 174.312 73.1708 174.627 76.82C178.868 125.969 146.634 173.969 95.7401 175.923C76.0777 176.678 57.4902 171.855 42.0825 162.774C100.602 101.365 131.481 73.7387 172.932 66.0582Z" fill="#0456B8"/>
<path d="M106.647 77.9103C115.326 92.7437 120.629 107.548 122.237 119.446C123.042 125.399 122.909 130.531 121.882 134.544C120.857 138.547 118.986 141.292 116.406 142.78C113.827 144.268 110.497 144.521 106.486 143.422C102.467 142.32 97.9102 139.892 93.1 136.249C83.4866 128.968 73.1591 117.061 64.4796 102.228C55.8 87.3945 50.4977 72.5898 48.8893 60.6924C48.0845 54.7395 48.2172 49.6068 49.2443 45.5947C50.2693 41.5911 52.1407 38.8457 54.7202 37.3582C57.2996 35.8707 60.6289 35.6168 64.6398 36.7162C68.6592 37.818 73.216 40.2462 78.0262 43.8893C87.6397 51.1701 97.9672 63.0769 106.647 77.9103Z" stroke="#FAFCFE" stroke-width="3.62887"/>
<path d="M65.9476 77.0912C57.0003 92.808 51.5942 108.451 50.0344 120.991C49.2539 127.265 49.448 132.67 50.5728 136.886C51.6954 141.094 53.6987 143.975 56.4446 145.516C59.1905 147.056 62.7098 147.274 66.9203 146.058C71.139 144.84 75.9028 142.217 80.9144 138.317C90.9307 130.522 101.641 117.855 110.589 102.138C119.536 86.4211 124.942 70.7778 126.502 58.2382C127.282 51.9639 127.088 46.5596 125.963 42.3431C124.841 38.1349 122.837 35.2541 120.092 33.7135C117.346 32.1728 113.826 31.955 109.616 33.171C105.397 34.3893 100.633 37.012 95.6217 40.9122C85.6055 48.7072 74.8949 61.3743 65.9476 77.0912Z" stroke="#FFA34F" stroke-width="3.62887"/>
<path d="M88.7949 65.9155C71.5431 64.8909 55.8354 66.8483 44.405 70.7744C38.6854 72.7389 34.126 75.1659 30.978 77.8816C27.836 80.5921 26.2132 83.4823 26.0357 86.4278C25.8582 89.3733 27.1223 92.435 29.9164 95.498C32.7159 98.567 36.9512 101.516 42.3941 104.144C53.2715 109.395 68.632 113.197 85.8839 114.222C103.136 115.247 118.843 113.289 130.274 109.363C135.993 107.399 140.553 104.972 143.701 102.256C146.843 99.5455 148.466 96.6553 148.643 93.7097C148.821 90.7642 147.556 87.7025 144.762 84.6395C141.963 81.5706 137.728 78.6213 132.285 75.9938C121.407 70.7428 106.047 66.9401 88.7949 65.9155Z" stroke="#DFECFB" stroke-width="3.62887"/>
<ellipse cx="88.0001" cy="91.259" rx="11.4906" ry="11.4074" fill="#FFC700"/>
</svg>
