<svg width="236" height="181" viewBox="0 0 236 181" fill="none" xmlns="http://www.w3.org/2000/svg">
<path d="M195.283 135.037V178.505L41.5131 178.505L41.5132 135.037L89.9837 92.205L91.7772 90.6202L89.9837 89.0353L41.513 46.2032V2.73506L195.283 2.73506V46.2032L146.813 89.0352L145.019 90.6201L146.813 92.2049L195.283 135.037Z" fill="white" stroke="#0469DE" stroke-width="4.22989"/>
<mask id="mask0_82_3614" style="mask-type:alpha" maskUnits="userSpaceOnUse" x="39" y="0" width="159" height="181">
<path d="M197.398 0.620117L39.3981 0.620117V47.1567L88.5832 90.6202L39.3982 134.084L39.3982 180.62L197.398 180.62V134.084L148.213 90.6201L197.398 47.1567V0.620117Z" fill="white"/>
</mask>
<g mask="url(#mask0_82_3614)">
<path d="M117.49 -10.2881H168.341V40.621L117.49 40.621V-10.2881Z" fill="#EFF7FF"/>
<path d="M168.341 40.621H219.191V91.5301H168.341V40.621Z" fill="#EFF7FF"/>
<path d="M15.7892 -10.2881L66.6397 -10.2881V40.621H15.7892L15.7892 -10.2881Z" fill="#EFF7FF"/>
<path d="M66.6397 40.621H117.49V91.5301H66.6397V40.621Z" fill="#EFF7FF"/>
<path d="M117.49 91.5301H168.341V142.439H117.49V91.5301Z" fill="#EFF7FF"/>
<path d="M168.341 142.439H219.191V193.348H168.341V142.439Z" fill="#EFF7FF"/>
<path d="M15.7892 91.5301H66.6397V142.439H15.7892V91.5301Z" fill="#EFF7FF"/>
<path d="M66.6397 142.439H117.49V193.348H66.6397V142.439Z" fill="#EFF7FF"/>
<path d="M82.9846 47.0061L114.553 27.8936L121.131 38.7843L89.5631 57.8967L82.9846 47.0061Z" fill="#DFECFB"/>
<path d="M92.0651 -0.74058L111.544 -32.1064L122.34 -25.3864L102.861 5.97948L92.0651 -0.74058Z" fill="#DFECFB"/>
<path d="M64.6417 15.0603L37.5823 -10.0439L46.2231 -19.3792L73.2825 5.72504L64.6417 15.0603Z" fill="#DFECFB"/>
<path d="M173.607 16.8785L146.548 -8.22572L155.189 -17.561L182.248 7.54322L173.607 16.8785Z" fill="#DFECFB"/>
<path d="M166.424 80.7682L137.467 57.8833L145.344 47.8936L174.301 70.7785L166.424 80.7682Z" fill="#DFECFB"/>
<path d="M124.24 80.1052L104.654 111.404L93.8811 104.647L113.467 73.3481L124.24 80.1052Z" fill="#DFECFB"/>
<path d="M52.3372 91.5299L77.4684 118.569L68.1618 127.239L43.0305 100.2L52.3372 91.5299Z" fill="#DFECFB"/>
<path d="M30.997 151.53L63.3205 169.332L57.1931 180.483L24.8696 162.681L30.997 151.53Z" fill="#DFECFB"/>
<path d="M84.8007 157.593L116.561 138.803L123.029 149.76L91.2683 168.55L84.8007 157.593Z" fill="#DFECFB"/>
<path d="M157.648 93.3481L182.85 120.32L173.566 129.015L148.364 102.043L157.648 93.3481Z" fill="#DFECFB"/>
<path d="M143.619 153.348L175.904 171.221L169.752 182.359L137.467 164.486L143.619 153.348Z" fill="#DFECFB"/>
</g>
<ellipse cx="118.489" cy="54.4687" rx="13.6453" ry="13.661" fill="#FF9C1A"/>
<ellipse cx="84.9437" cy="28.8367" rx="9.66545" ry="9.67657" fill="#0469DE"/>
<ellipse cx="149.296" cy="163.372" rx="13.6453" ry="13.661" fill="#545963"/>
<rect width="28.4329" height="28.4554" transform="matrix(0.918981 0.394302 -0.393537 0.919309 151.292 24.8701)" fill="#2DE09E"/>
<rect x="93.8806" y="148.925" width="28.4278" height="28.4605" fill="#0469DE"/>
<path d="M130.585 72.6384L122.947 105.24L98.021 80.2857L130.585 72.6384Z" fill="#FF7B7B"/>
<path d="M100.613 73.5875L70.2722 59.4926L99.7318 40.1124L100.613 73.5875Z" fill="#FFDB5C"/>
<path d="M145.41 123.414L134.436 155.047L112.23 127.639L145.41 123.414Z" fill="#2DE09E"/>
<path d="M195.283 135.037V178.505L41.5131 178.505L41.5132 135.037L89.9837 92.205L91.7772 90.6202L89.9837 89.0353L41.513 46.2032V2.73506L195.283 2.73506V46.2032L146.813 89.0352L145.019 90.6201L146.813 92.2049L195.283 135.037Z" stroke="#0469DE" stroke-width="4.22989"/>
</svg>
