<svg width="280" height="251" viewBox="0 0 280 251" fill="none" xmlns="http://www.w3.org/2000/svg">
<g clip-path="url(#clip0_82_3630)">
<path d="M49.2267 215.785L89.7116 120.017C114.196 111.981 124.649 105.462 144.635 93.458L263.503 207.353C282.811 225.853 292.465 235.103 289.271 243.052C286.078 251.001 272.708 251.001 245.967 251.001H72.5729C55.2927 251.001 46.6527 251.001 42.8933 245.33C39.134 239.659 42.4983 231.701 49.2267 215.785Z" fill="#0469DE"/>
<path d="M152.378 100.877L144.635 93.458C143.95 93.8693 143.277 94.2741 142.613 94.6728C123.916 105.91 113.357 112.256 89.7116 120.017L59.4976 191.489C48.1327 218.373 42.4502 231.815 48.7149 241.408C48.9559 241.777 49.209 242.131 49.4745 242.473C103.633 207.937 129.639 177.547 152.378 100.877Z" fill="#0456B8"/>
<path d="M163.738 251.001H134.805C148.264 223.117 153.512 198.481 159.602 169.891C162.875 154.526 166.391 138.019 171.556 119.252L191.426 138.292C185.979 181.134 179.932 208.917 163.738 251.001Z" fill="#0456B8"/>
<path d="M231.281 250.821C223.082 251.001 213.689 251.001 203.031 251.001H198.934C210.088 215.717 214.368 193.271 216.836 162.639L232.106 177.27C235.512 180.533 238.741 183.627 241.785 186.564C239.254 213.969 236.541 230.552 231.281 250.821Z" fill="#0456B8"/>
<path d="M200.365 28.3474C202.235 32.3133 201.706 37.4785 198.641 43.6696C195.586 49.8402 190.125 56.7807 182.614 64.0546C167.605 78.5906 144.663 94.2162 117.34 107.433C90.0163 120.649 63.5963 128.9 42.9988 131.587C32.6917 132.931 23.9288 132.871 17.2698 131.399C10.5885 129.922 6.28892 127.093 4.41856 123.127C2.5482 119.161 3.07743 113.996 6.14242 107.804C9.19722 101.634 14.6585 94.6933 22.1692 87.4194C37.1787 72.8834 60.1205 57.2578 87.444 44.0415C114.767 30.8252 141.187 22.5745 161.785 19.8874C172.092 18.5429 180.855 18.6032 187.514 20.0751C194.195 21.552 198.495 24.3815 200.365 28.3474Z" fill="#FAFCFE" stroke="#2F3237" stroke-width="3"/>
<path d="M148.266 34.9186C134.602 5.93342 98.9774 -5.87515 70.3978 7.95467C41.8182 21.7845 28.4932 57.2799 42.157 86.2651C76.5019 89.0388 128.023 65.9543 148.266 34.9186Z" fill="#0469DE"/>
<ellipse cx="45.876" cy="13.2937" rx="45.876" ry="13.2937" transform="matrix(0.859692 -0.512245 0.502533 0.863731 45.5201 64.7217)" fill="#0456B8"/>
<path d="M71.1923 24.3628C51.4441 38.7364 50.4524 60.6969 55.1086 75.0048" stroke="#FAFCFE" stroke-width="3.16832"/>
<path d="M182.414 36.5531C172.459 56.3723 138.414 79.0145 125.408 84.7987" stroke="#B9D6FC" stroke-width="3.16832"/>
<path d="M89.375 147.066L90.3623 220.606L24.2482 186.083L89.375 147.066Z" fill="#FF9900"/>
<path d="M74.5125 155.971L59.4977 191.488C57.8844 195.305 56.3857 198.85 55.0193 202.152L90.3623 220.607L89.375 147.066L74.5125 155.971Z" fill="#FFB800"/>
<rect width="53.8364" height="52.8888" transform="matrix(0.537131 0.843499 -0.838174 0.545403 144.707 146.861)" fill="#1983E5"/>
<ellipse cx="208.679" cy="141.521" rx="34.3396" ry="34.7128" fill="#FF766D"/>
<path d="M178.165 125.585L226.054 171.47C220.957 174.498 215.019 176.235 208.679 176.235C189.714 176.235 174.34 160.693 174.34 141.522C174.34 135.777 175.72 130.358 178.165 125.585Z" fill="#D55CFF"/>
</g>
<defs>
<clipPath id="clip0_82_3630">
<rect width="280" height="251" fill="white"/>
</clipPath>
</defs>
</svg>
