<?xml version="1.0" encoding="UTF-8"?>
<svg id="Layer_1" xmlns="http://www.w3.org/2000/svg" version="1.1" viewBox="0 0 82 89">
  <!-- Generator: Adobe Illustrator 29.3.1, SVG Export Plug-In . SVG Version: 2.1.0 Build 151)  -->
  <defs>
    <style>
      .st0 {
        fill-rule: evenodd;
      }

      .st0, .st1 {
        fill: #fafcfe;
      }

      .st2 {
        fill: #ffc85c;
      }

      .st3 {
        fill: #c93432;
      }
    </style>
  </defs>
  <rect class="st2" y=".5" width="7.1" height="88"/>
  <path class="st3" d="M7.1.5h74.9l-30.2,29.7,30.2,29.7H7.1V.5Z"/>
  <path class="st0" d="M7.1,21h20.2V.5h1v20.5h20.2V.5h1v20.5h11.6l-1,1h-10.5v20.5h14.7l1,1h-15.7v16.4h-1v-16.4h-20.2v16.4h-1v-16.4H7.1v-1h20.2v-20.5H7.1v-1ZM48.6,42.5h-20.2v-20.5h20.2v20.5Z"/>
  <path class="st1" d="M70.9,59.8h-1v-11.9l1,1v11Z"/>
  <path class="st1" d="M70.9.5v11l-1,1V.5h1Z"/>
</svg>