<?xml version="1.0" encoding="UTF-8"?>
<svg id="Layer_1" xmlns="http://www.w3.org/2000/svg" version="1.1" viewBox="0 0 176 139">
  <!-- Generator: Adobe Illustrator 29.3.1, SVG Export Plug-In . SVG Version: 2.1.0 Build 151)  -->
  <defs>
    <style>
      .st0 {
        fill: none;
        stroke: #ffde4d;
        stroke-width: 2px;
      }

      .st1, .st2 {
        fill: #ffde4d;
      }

      .st3 {
        fill: #ff9593;
      }

      .st2 {
        fill-rule: evenodd;
      }

      .st4 {
        fill: #c93432;
      }

      .st5 {
        fill: #fbfbfb;
      }
    </style>
  </defs>
  <path class="st3" d="M40.2,46c6.7,29,14.7,38.8,37.2,44-21.3,7-29.2,17-37.2,44-5.9-25.6-13.5-35.7-37.2-44,23.1-5.4,30.3-16.3,37.2-44Z"/>
  <path class="st4" d="M16.5,13.9c-14,13.9-14,36.3,0,50.2l70.3,69.8,72.6-69c14-13.9,14-36.3,0-50.2-14-13.9-36.6-13.9-50.6,0l-20.5,20.4-21.3-21.3C53.1,0,30.5,0,16.5,13.9Z"/>
  <path class="st5" d="M149.3,74.8c0-.1,0-.2,0-.4,0-1-.8-1.7-1.7-1.7s-1.7.8-1.7,1.7.8,1.7,1.7,1.7.2,0,.3,0l1.4-1.3Z"/>
  <path class="st5" d="M143.9,79.9c-.2-1-1.1-1.8-2.2-1.8s-2.2,1-2.2,2.2.8,1.9,1.8,2.2l2.7-2.5Z"/>
  <path class="st5" d="M138.4,85.1c-.4-1-1.4-1.7-2.5-1.7s-2.7,1.2-2.7,2.7.7,2,1.6,2.5l3.6-3.4Z"/>
  <path class="st5" d="M132.5,90.7c-.5-1-1.5-1.6-2.7-1.6-1.7,0-3,1.3-3,3s.6,2.1,1.5,2.6l4.2-4Z"/>
  <path class="st5" d="M126.7,96.2c-.6-.9-1.6-1.5-2.7-1.5-1.8,0-3.2,1.4-3.2,3.1s.5,2,1.4,2.6l4.5-4.3Z"/>
  <path class="st5" d="M120.8,101.8c-.6-.9-1.7-1.4-2.8-1.4-1.9,0-3.5,1.6-3.5,3.5s.5,2.1,1.3,2.7l5-4.7Z"/>
  <path class="st5" d="M114.9,107.3c-.7-.8-1.7-1.3-2.8-1.3-2,0-3.6,1.6-3.6,3.6s.5,2,1.2,2.7l5.3-5Z"/>
  <path class="st5" d="M109,113c-.7-.8-1.8-1.3-2.9-1.3-2.2,0-4,1.8-4,3.9s.4,1.9.9,2.5c-.7-.7-1.7-1.1-2.8-1.1-2.3,0-4.1,1.8-4.1,4.1s.5,2.2,1.2,2.9l11.7-11.1Z"/>
  <path class="st5" d="M96.9,124.4c-.7-.6-1.7-1-2.7-1s-1.9.3-2.6.9c.6-.8,1-1.7,1-2.8s-.4-2-1-2.8c.7.6,1.6.9,2.6.9,2.3,0,4.1-1.8,4.1-4.1s-1.8-4.1-4.1-4.1-4.1,1.8-4.1,4.1.3,1.9.9,2.6c-.8-.6-1.8-1-2.8-1-2.5,0-4.4,2-4.4,4.4s2,4.4,4.4,4.4,2.1-.4,2.8-1c-.6.7-.9,1.6-.9,2.6s.3,1.9.9,2.6l5.9-5.6Z"/>
  <path class="st5" d="M90.9,130.1c-.8-.8-1.9-1.4-3.1-1.4s-1.8.3-2.5.8c.4-.6.6-1.3.6-2.1,0-2.3-1.8-4.1-4.1-4.1s-2.9.8-3.6,2.1l5.6,5.6c.2,0,.3-.2.4-.3,0,.2-.2.3-.2.5l2.8,2.8,4.1-3.9Z"/>
  <path class="st5" d="M77.8,125c1.3-.7,2.1-2,2.1-3.6,0-2.3-1.8-4.1-4.1-4.1s-2.9.8-3.6,2.1l5.6,5.6Z"/>
  <path class="st5" d="M71.8,119.1c1.2-.7,2.1-2,2.1-3.5,0-2.2-1.8-3.9-4-3.9s-2.8.8-3.5,2.1l5.4,5.3Z"/>
  <path class="st5" d="M65.6,112.9c1.2-.6,2-1.8,2-3.2,0-2-1.6-3.6-3.6-3.6s-2.6.8-3.3,2l4.9,4.9Z"/>
  <path class="st5" d="M59.6,106.9c1.2-.6,2-1.7,2-3.1s-1.6-3.5-3.5-3.5-2.6.8-3.1,1.9l4.7,4.6Z"/>
  <path class="st5" d="M53.3,100.7c1.1-.5,1.9-1.6,1.9-2.9s-1.4-3.1-3.2-3.1-2.4.8-2.9,1.9l4.2,4.1Z"/>
  <path class="st5" d="M47.3,94.8c1.1-.4,1.9-1.5,1.9-2.8s-1.3-3-3-3-2.3.8-2.8,1.9l3.9,3.9Z"/>
  <path class="st5" d="M41,88.6c1-.4,1.8-1.4,1.8-2.5s-1.2-2.7-2.7-2.7-2.2.7-2.5,1.8l3.4,3.4Z"/>
  <path class="st5" d="M34.7,82.4c1-.2,1.7-1.1,1.7-2.1s-1-2.2-2.2-2.2-1.9.7-2.2,1.7l2.7,2.6Z"/>
  <path class="st5" d="M28.4,76.1c.9,0,1.7-.8,1.7-1.7s-.8-1.7-1.7-1.7-1.7.7-1.7,1.7l1.8,1.8Z"/>
  <path class="st5" d="M82,33.9c-.4,0-.8-.4-.8-.8s.4-.8.8-.8.8.4.8.8-.4.8-.8.8Z"/>
  <path class="st5" d="M88.2,39.9c.7,0,1.3-.6,1.3-1.3s-.6-1.3-1.3-1.3-1.3.6-1.3,1.3.6,1.3,1.3,1.3Z"/>
  <path class="st5" d="M90.4,50.6c0,1.2-1,2.2-2.2,2.2s-2.2-1-2.2-2.2,1-2.2,2.2-2.2,2.2,1,2.2,2.2Z"/>
  <path class="st5" d="M88.2,64.8c1.4,0,2.5-1.1,2.5-2.5s-1.1-2.5-2.5-2.5-2.5,1.1-2.5,2.5,1.1,2.5,2.5,2.5Z"/>
  <path class="st5" d="M91.3,74.2c0,1.7-1.4,3.1-3.2,3.1s-3.2-1.4-3.2-3.1,1.4-3.1,3.2-3.1,3.2,1.4,3.2,3.1Z"/>
  <path class="st5" d="M88.2,89.3c1.9,0,3.5-1.6,3.5-3.5s-1.6-3.5-3.5-3.5-3.5,1.6-3.5,3.5,1.6,3.5,3.5,3.5Z"/>
  <path class="st5" d="M92,97.8c0,2.1-1.7,3.8-3.8,3.8s-3.8-1.7-3.8-3.8,1.7-3.8,3.8-3.8,3.8,1.7,3.8,3.8Z"/>
  <path class="st5" d="M88.2,113.9c2.3,0,4.1-1.8,4.1-4.1s-1.8-4.1-4.1-4.1-4.1,1.8-4.1,4.1,1.8,4.1,4.1,4.1Z"/>
  <path class="st5" d="M79.6,97.8c0,1.9-1.6,3.5-3.5,3.5s-3.5-1.6-3.5-3.5,1.6-3.5,3.5-3.5,3.5,1.6,3.5,3.5Z"/>
  <path class="st5" d="M82,107.9c2.2,0,4-1.8,4-3.9s-1.8-3.9-4-3.9-4,1.8-4,3.9,1.8,3.9,4,3.9Z"/>
  <path class="st5" d="M82.1,83.7c-1.8,0-3.2-1.4-3.2-3.1s1.4-3.1,3.2-3.1,3.2,1.4,3.2,3.1-1.4,3.1-3.2,3.1Z"/>
  <path class="st5" d="M75.9,77.1c1.7,0,3-1.3,3-3s-1.3-3-3-3-3,1.3-3,3,1.3,3,3,3Z"/>
  <path class="st5" d="M82.1,71.4c-1.6,0-2.9-1.3-2.9-2.8s1.3-2.8,2.9-2.8,2.9,1.3,2.9,2.8-1.3,2.8-2.9,2.8Z"/>
  <path class="st5" d="M82,59.1c1.3,0,2.4-1.1,2.4-2.4s-1.1-2.4-2.4-2.4-2.4,1.1-2.4,2.4,1.1,2.4,2.4,2.4Z"/>
  <path class="st5" d="M78.6,62.4c0,1.5-1.2,2.7-2.7,2.7s-2.7-1.2-2.7-2.7,1.2-2.7,2.7-2.7,2.7,1.2,2.7,2.7Z"/>
  <path class="st5" d="M70.1,71.1c1.6,0,2.9-1.3,2.9-2.8s-1.3-2.8-2.9-2.8-2.9,1.3-2.9,2.8,1.3,2.8,2.9,2.8Z"/>
  <path class="st5" d="M66.6,62.4c0,1.3-1.1,2.4-2.4,2.4s-2.4-1.1-2.4-2.4,1.1-2.4,2.4-2.4,2.4,1.1,2.4,2.4Z"/>
  <path class="st5" d="M69.8,58.8c1.2,0,2.2-1,2.2-2.2s-1-2.2-2.2-2.2-2.2,1-2.2,2.2,1,2.2,2.2,2.2Z"/>
  <path class="st5" d="M78,50.8c0,1.1-.9,2-2.1,2s-2.1-.9-2.1-2,.9-2,2.1-2,2.1.9,2.1,2Z"/>
  <path class="st5" d="M80.5,44.9c0,.9.7,1.6,1.6,1.6s1.6-.7,1.6-1.6-.7-1.6-1.6-1.6-1.6.7-1.6,1.6Z"/>
  <path class="st5" d="M69.9,46.2c.8,0,1.4-.6,1.4-1.4s-.6-1.4-1.4-1.4-1.4.6-1.4,1.4.6,1.4,1.4,1.4Z"/>
  <path class="st5" d="M77.1,38.8c0,.6-.5,1.1-1.1,1.1s-1.1-.5-1.1-1.1.5-1.1,1.1-1.1,1.1.5,1.1,1.1Z"/>
  <path class="st5" d="M63.9,52.2c1,0,1.7-.8,1.7-1.7s-.8-1.7-1.7-1.7-1.7.8-1.7,1.7.8,1.7,1.7,1.7Z"/>
  <path class="st5" d="M59.9,56.3c0,1-.9,1.9-1.9,1.9s-1.9-.8-1.9-1.9.9-1.9,1.9-1.9,1.9.8,1.9,1.9Z"/>
  <path class="st5" d="M52.2,51.9c.8,0,1.4-.6,1.4-1.4s-.6-1.4-1.4-1.4-1.4.6-1.4,1.4.6,1.4,1.4,1.4Z"/>
  <path class="st5" d="M59,44.8c0,.6-.5,1.1-1.1,1.1s-1.1-.5-1.1-1.1.5-1.1,1.1-1.1,1.1.5,1.1,1.1Z"/>
  <path class="st5" d="M64.1,39.9c.5,0,1-.4,1-.9s-.4-.9-1-.9-1,.4-1,.9.4.9,1,.9Z"/>
  <path class="st5" d="M52.6,39c0,.3-.3.6-.6.6s-.6-.3-.6-.6.3-.6.6-.6.6.3.6.6Z"/>
  <path class="st5" d="M46.1,45.3c.4,0,.8-.4.8-.8s-.4-.8-.8-.8-.8.4-.8.8.4.8.8.8Z"/>
  <path class="st5" d="M82,95.6c-2,0-3.6-1.6-3.6-3.6s1.6-3.6,3.6-3.6,3.6,1.6,3.6,3.6-1.6,3.6-3.6,3.6Z"/>
  <path class="st5" d="M22.4,69.5c.6,0,1.1-.5,1.1-1.1s-.5-1.1-1.1-1.1-1.1.5-1.1,1.1.5,1.1,1.1,1.1Z"/>
  <path class="st5" d="M85.9,115.5c0,2.3-1.8,4.1-4.1,4.1s-4.1-1.8-4.1-4.1,1.8-4.1,4.1-4.1,4.1,1.8,4.1,4.1Z"/>
  <path class="st5" d="M75.9,113.6c2.2,0,4-1.8,4-3.9s-1.8-3.9-4-3.9-4,1.8-4,3.9,1.8,3.9,4,3.9Z"/>
  <path class="st5" d="M73.6,103.7c0,2-1.6,3.6-3.6,3.6s-3.6-1.6-3.6-3.6,1.6-3.6,3.6-3.6,3.6,1.6,3.6,3.6Z"/>
  <path class="st5" d="M64.1,101.3c1.9,0,3.5-1.6,3.5-3.5s-1.6-3.5-3.5-3.5-3.5,1.6-3.5,3.5,1.6,3.5,3.5,3.5Z"/>
  <path class="st5" d="M79.3,85.9c0,1.9-1.6,3.5-3.5,3.5s-3.5-1.6-3.5-3.5,1.6-3.5,3.5-3.5,3.5,1.6,3.5,3.5Z"/>
  <path class="st5" d="M58,95c1.8,0,3.2-1.4,3.2-3.1s-1.4-3.1-3.2-3.1-3.2,1.4-3.2,3.1,1.4,3.1,3.2,3.1Z"/>
  <path class="st5" d="M72.9,80.1c0,1.7-1.3,3-3,3s-3-1.3-3-3,1.3-3,3-3,3,1.3,3,3Z"/>
  <path class="st5" d="M51.8,89c1.7,0,3-1.3,3-3s-1.3-3-3-3-3,1.3-3,3,1.3,3,3,3Z"/>
  <path class="st5" d="M66.9,74.2c0,1.6-1.3,2.8-2.9,2.8s-2.9-1.3-2.9-2.8,1.3-2.8,2.9-2.8,2.9,1.3,2.9,2.8Z"/>
  <path class="st5" d="M46.1,82.7c1.5,0,2.7-1.2,2.7-2.7s-1.2-2.7-2.7-2.7-2.7,1.2-2.7,2.7,1.2,2.7,2.7,2.7Z"/>
  <path class="st5" d="M60.6,68.2c0,1.4-1.1,2.5-2.5,2.5s-2.5-1.1-2.5-2.5,1.1-2.5,2.5-2.5,2.5,1.1,2.5,2.5Z"/>
  <path class="st5" d="M40.3,76.4c1.2,0,2.2-1,2.2-2.2s-1-2.2-2.2-2.2-2.2,1-2.2,2.2,1,2.2,2.2,2.2Z"/>
  <path class="st5" d="M54.2,62.4c0,1.1-.9,2-2.1,2s-2.1-.9-2.1-2,.9-2,2.1-2,2.1.9,2.1,2Z"/>
  <path class="st5" d="M34.4,70.1c1,0,1.7-.8,1.7-1.7s-.8-1.7-1.7-1.7-1.7.8-1.7,1.7.8,1.7,1.7,1.7Z"/>
  <path class="st5" d="M47.9,56.6c0,.9-.7,1.6-1.6,1.6s-1.6-.7-1.6-1.6.7-1.6,1.6-1.6,1.6.7,1.6,1.6Z"/>
  <path class="st5" d="M28.4,63.5c.6,0,1.1-.5,1.1-1.1s-.5-1.1-1.1-1.1-1.1.5-1.1,1.1.5,1.1,1.1,1.1Z"/>
  <path class="st5" d="M41.2,50.6c0,.5-.4.9-1,.9s-1-.4-1-.9.4-.9,1-.9,1,.4,1,.9Z"/>
  <path class="st5" d="M69.8,95.3c1.9,0,3.5-1.6,3.5-3.5s-1.6-3.5-3.5-3.5-3.5,1.6-3.5,3.5,1.6,3.5,3.5,3.5Z"/>
  <path class="st5" d="M67.2,85.9c0,1.7-1.4,3.1-3.2,3.1s-3.2-1.4-3.2-3.1,1.4-3.1,3.2-3.1,3.2,1.4,3.2,3.1Z"/>
  <path class="st5" d="M57.9,83c1.7,0,3-1.3,3-3s-1.3-3-3-3-3,1.3-3,3,1.3,3,3,3Z"/>
  <path class="st5" d="M54.5,73.9c0,1.4-1.1,2.5-2.5,2.5s-2.5-1.1-2.5-2.5,1.1-2.5,2.5-2.5,2.5,1.1,2.5,2.5Z"/>
  <path class="st5" d="M46.1,70.1c1.1,0,2.1-.9,2.1-2s-.9-2-2.1-2-2.1.9-2.1,2,.9,2,2.1,2Z"/>
  <path class="st5" d="M41.9,62.4c0,1-.8,1.7-1.7,1.7s-1.7-.8-1.7-1.7.8-1.7,1.7-1.7,1.7.8,1.7,1.7Z"/>
  <path class="st5" d="M34.2,57.5c.7,0,1.3-.6,1.3-1.3s-.6-1.3-1.3-1.3-1.3.6-1.3,1.3.6,1.3,1.3,1.3Z"/>
  <path class="st5" d="M96.4,97.8c0,1.9,1.6,3.5,3.5,3.5s3.5-1.6,3.5-3.5-1.6-3.5-3.5-3.5-3.5,1.6-3.5,3.5Z"/>
  <path class="st5" d="M94,107.9c-2.2,0-4-1.8-4-3.9s1.8-3.9,4-3.9,4,1.8,4,3.9-1.8,3.9-4,3.9Z"/>
  <path class="st5" d="M93.9,83.7c1.8,0,3.2-1.4,3.2-3.1s-1.4-3.1-3.2-3.1-3.2,1.4-3.2,3.1,1.4,3.1,3.2,3.1Z"/>
  <path class="st5" d="M100.1,77.1c-1.7,0-3-1.3-3-3s1.3-3,3-3,3,1.3,3,3-1.3,3-3,3Z"/>
  <path class="st5" d="M93.9,71.4c1.6,0,2.9-1.3,2.9-2.8s-1.3-2.8-2.9-2.8-2.9,1.3-2.9,2.8,1.3,2.8,2.9,2.8Z"/>
  <path class="st5" d="M94,59.1c-1.3,0-2.4-1.1-2.4-2.4s1.1-2.4,2.4-2.4,2.4,1.1,2.4,2.4-1.1,2.4-2.4,2.4Z"/>
  <path class="st5" d="M97.4,62.4c0,1.5,1.2,2.7,2.7,2.7s2.7-1.2,2.7-2.7-1.2-2.7-2.7-2.7-2.7,1.2-2.7,2.7Z"/>
  <path class="st5" d="M105.9,71.1c-1.6,0-2.9-1.3-2.9-2.8s1.3-2.8,2.9-2.8,2.9,1.3,2.9,2.8-1.3,2.8-2.9,2.8Z"/>
  <path class="st5" d="M109.4,62.4c0,1.3,1.1,2.4,2.4,2.4s2.4-1.1,2.4-2.4-1.1-2.4-2.4-2.4-2.4,1.1-2.4,2.4Z"/>
  <path class="st5" d="M106.2,58.8c-1.2,0-2.2-1-2.2-2.2s1-2.2,2.2-2.2,2.2,1,2.2,2.2-1,2.2-2.2,2.2Z"/>
  <path class="st5" d="M98,50.8c0,1.1.9,2,2.1,2s2.1-.9,2.1-2-.9-2-2.1-2-2.1.9-2.1,2Z"/>
  <path class="st5" d="M95.5,44.9c0,.9-.7,1.6-1.6,1.6s-1.6-.7-1.6-1.6.7-1.6,1.6-1.6,1.6.7,1.6,1.6Z"/>
  <path class="st5" d="M94,33.9c.4,0,.8-.4.8-.8s-.4-.8-.8-.8-.8.4-.8.8.4.8.8.8Z"/>
  <path class="st5" d="M106.1,46.2c-.8,0-1.4-.6-1.4-1.4s.6-1.4,1.4-1.4,1.4.6,1.4,1.4-.6,1.4-1.4,1.4Z"/>
  <path class="st5" d="M98.9,38.8c0,.6.5,1.1,1.1,1.1s1.1-.5,1.1-1.1-.5-1.1-1.1-1.1-1.1.5-1.1,1.1Z"/>
  <path class="st5" d="M112.1,52.2c-1,0-1.7-.8-1.7-1.7s.8-1.7,1.7-1.7,1.7.8,1.7,1.7-.8,1.7-1.7,1.7Z"/>
  <path class="st5" d="M116.1,56.3c0,1,.9,1.9,1.9,1.9s1.9-.8,1.9-1.9-.9-1.9-1.9-1.9-1.9.8-1.9,1.9Z"/>
  <path class="st5" d="M123.8,51.9c-.8,0-1.4-.6-1.4-1.4s.6-1.4,1.4-1.4,1.4.6,1.4,1.4-.6,1.4-1.4,1.4Z"/>
  <path class="st5" d="M117,44.8c0,.6.5,1.1,1.1,1.1s1.1-.5,1.1-1.1-.5-1.1-1.1-1.1-1.1.5-1.1,1.1Z"/>
  <path class="st5" d="M111.9,39.9c-.5,0-1-.4-1-.9s.4-.9,1-.9,1,.4,1,.9-.4.9-1,.9Z"/>
  <path class="st5" d="M123.4,39c0,.3.3.6.6.6s.6-.3.6-.6-.3-.6-.6-.6-.6.3-.6.6Z"/>
  <path class="st5" d="M129.9,45.3c-.4,0-.8-.4-.8-.8s.4-.8.8-.8.8.4.8.8-.4.8-.8.8Z"/>
  <path class="st5" d="M94,95.6c2,0,3.6-1.6,3.6-3.6s-1.6-3.6-3.6-3.6-3.6,1.6-3.6,3.6,1.6,3.6,3.6,3.6Z"/>
  <path class="st5" d="M153.6,69.5c-.6,0-1.1-.5-1.1-1.1s.5-1.1,1.1-1.1,1.1.5,1.1,1.1-.5,1.1-1.1,1.1Z"/>
  <path class="st5" d="M100.1,113.6c-2.2,0-4-1.8-4-3.9s1.8-3.9,4-3.9,4,1.8,4,3.9-1.8,3.9-4,3.9Z"/>
  <path class="st5" d="M102.4,103.7c0,2,1.6,3.6,3.6,3.6s3.6-1.6,3.6-3.6-1.6-3.6-3.6-3.6-3.6,1.6-3.6,3.6Z"/>
  <path class="st5" d="M111.9,101.3c-1.9,0-3.5-1.6-3.5-3.5s1.6-3.5,3.5-3.5,3.5,1.6,3.5,3.5-1.6,3.5-3.5,3.5Z"/>
  <path class="st5" d="M96.7,85.9c0,1.9,1.6,3.5,3.5,3.5s3.5-1.6,3.5-3.5-1.6-3.5-3.5-3.5-3.5,1.6-3.5,3.5Z"/>
  <path class="st5" d="M118,95c-1.8,0-3.2-1.4-3.2-3.1s1.4-3.1,3.2-3.1,3.2,1.4,3.2,3.1-1.4,3.1-3.2,3.1Z"/>
  <path class="st5" d="M103.1,80.1c0,1.7,1.3,3,3,3s3-1.3,3-3-1.3-3-3-3-3,1.3-3,3Z"/>
  <path class="st5" d="M124.2,89c-1.7,0-3-1.3-3-3s1.3-3,3-3,3,1.3,3,3-1.3,3-3,3Z"/>
  <path class="st5" d="M109.1,74.2c0,1.6,1.3,2.8,2.9,2.8s2.9-1.3,2.9-2.8-1.3-2.8-2.9-2.8-2.9,1.3-2.9,2.8Z"/>
  <path class="st5" d="M129.9,82.7c-1.5,0-2.7-1.2-2.7-2.7s1.2-2.7,2.7-2.7,2.7,1.2,2.7,2.7-1.2,2.7-2.7,2.7Z"/>
  <path class="st5" d="M115.4,68.2c0,1.4,1.1,2.5,2.5,2.5s2.5-1.1,2.5-2.5-1.1-2.5-2.5-2.5-2.5,1.1-2.5,2.5Z"/>
  <path class="st5" d="M135.7,76.4c-1.2,0-2.2-1-2.2-2.2s1-2.2,2.2-2.2,2.2,1,2.2,2.2-1,2.2-2.2,2.2Z"/>
  <path class="st5" d="M121.8,62.4c0,1.1.9,2,2.1,2s2.1-.9,2.1-2-.9-2-2.1-2-2.1.9-2.1,2Z"/>
  <path class="st5" d="M141.6,70.1c-1,0-1.7-.8-1.7-1.7s.8-1.7,1.7-1.7,1.7.8,1.7,1.7-.8,1.7-1.7,1.7Z"/>
  <path class="st5" d="M128.1,56.6c0,.9.7,1.6,1.6,1.6s1.6-.7,1.6-1.6-.7-1.6-1.6-1.6-1.6.7-1.6,1.6Z"/>
  <path class="st5" d="M147.6,63.5c-.6,0-1.1-.5-1.1-1.1s.5-1.1,1.1-1.1,1.1.5,1.1,1.1-.5,1.1-1.1,1.1Z"/>
  <path class="st5" d="M134.8,50.6c0,.5.4.9,1,.9s1-.4,1-.9-.4-.9-1-.9-1,.4-1,.9Z"/>
  <path class="st5" d="M106.2,95.3c-1.9,0-3.5-1.6-3.5-3.5s1.6-3.5,3.5-3.5,3.5,1.6,3.5,3.5-1.6,3.5-3.5,3.5Z"/>
  <path class="st5" d="M108.8,85.9c0,1.7,1.4,3.1,3.2,3.1s3.2-1.4,3.2-3.1-1.4-3.1-3.2-3.1-3.2,1.4-3.2,3.1Z"/>
  <path class="st5" d="M118.1,83c-1.7,0-3-1.3-3-3s1.3-3,3-3,3,1.3,3,3-1.3,3-3,3Z"/>
  <path class="st5" d="M121.5,73.9c0,1.4,1.1,2.5,2.5,2.5s2.5-1.1,2.5-2.5-1.1-2.5-2.5-2.5-2.5,1.1-2.5,2.5Z"/>
  <path class="st5" d="M129.9,70.1c-1.1,0-2.1-.9-2.1-2s.9-2,2.1-2,2.1.9,2.1,2-.9,2-2.1,2Z"/>
  <path class="st5" d="M134.1,62.4c0,1,.8,1.7,1.7,1.7s1.7-.8,1.7-1.7-.8-1.7-1.7-1.7-1.7.8-1.7,1.7Z"/>
  <path class="st5" d="M141.8,57.5c-.7,0-1.3-.6-1.3-1.3s.6-1.3,1.3-1.3,1.3.6,1.3,1.3-.6,1.3-1.3,1.3Z"/>
  <path class="st2" d="M55.2,102.6c5.5-5.9,12.6-9.8,22.5-13.1-22.8-5.2-30.9-15.1-37.6-44.3-3.4,13.6-6.9,23.2-12.3,30.1l27.4,27.2Z"/>
  <path class="st1" d="M135.8,21.7c2.3,10.5,5.1,14.1,12.9,15.9-7.4,2.5-10.1,6.1-12.9,15.9-2.1-9.3-4.7-12.9-12.9-15.9,8-2,10.5-5.9,12.9-15.9Z"/>
  <path class="st0" d="M128.8,119.4l6.7,15.4M143.6,105.1l15.3,14.5M158.3,87.2l14.4,6.6"/>
</svg>