<svg xmlns="http://www.w3.org/2000/svg" viewBox="0 0 100 100"><path d="M50 80 C 25 65 15 45 15 30 C 15 18 24 12 32 12 C 40 12 46 16 50 22 C 54 16 60 12 68 12 C 76 12 85 18 85 30 C 85 45 75 65 50 80 Z" fill="#D03A3A"/><g fill="white" opacity="0.5"><circle cx="35" cy="30" r="1.5"/><circle cx="42" cy="28" r="1.5"/><circle cx="49" cy="30" r="1.5"/><circle cx="56" cy="28" r="1.5"/><circle cx="63" cy="30" r="1.5"/><circle cx="38" cy="38" r="1.5"/><circle cx="45" cy="38" r="1.5"/><circle cx="52" cy="38" r="1.5"/><circle cx="59" cy="38" r="1.5"/><circle cx="42" cy="48" r="1.5"/><circle cx="50" cy="48" r="1.5"/><circle cx="58" cy="48" r="1.5"/></g><g stroke="#E8B86D" stroke-width="3" stroke-linecap="round" fill="none"><line x1="6" y1="50" x2="14" y2="46"/><line x1="8" y1="60" x2="16" y2="58"/></g></svg>
