<?xml version="1.0" encoding="UTF-8"?>
<svg id="Layer_1" xmlns="http://www.w3.org/2000/svg" xmlns:xlink="http://www.w3.org/1999/xlink" version="1.1" viewBox="0 0 112 113">
  <!-- Generator: Adobe Illustrator 29.3.1, SVG Export Plug-In . SVG Version: 2.1.0 Build 151)  -->
  <defs>
    <style>
      .st0, .st1, .st2, .st3, .st4 {
        fill: none;
      }

      .st5 {
        mask: url(#mask);
      }

      .st6 {
        fill: #de4f45;
      }

      .st7 {
        fill: #373030;
      }

      .st8 {
        fill: #ff181a;
        fill-rule: evenodd;
      }

      .st1, .st2, .st3, .st9 {
        stroke-width: 2px;
      }

      .st1, .st9 {
        stroke: #373030;
      }

      .st2 {
        stroke: #ff4536;
      }

      .st3 {
        stroke: #fff;
      }

      .st3, .st4 {
        stroke-linejoin: round;
      }

      .st4 {
        stroke: #ff181a;
        stroke-linecap: round;
        stroke-opacity: .1;
        stroke-width: 4px;
      }

      .st10 {
        fill: #1ae69b;
      }

      .st9 {
        fill: #fdf4f3;
      }

      .st11 {
        clip-path: url(#clippath);
      }
    </style>
    <clipPath id="clippath">
      <rect class="st0" y=".5" width="112" height="112"/>
    </clipPath>
    <mask id="mask" x="27.2" y="14.6" width="64.9" height="70.5" maskUnits="userSpaceOnUse">
      <g id="mask0_50_5033">
        <path class="st10" d="M72.1,72.8c0-2.7,1.5-5.2,3.5-7,6.1-5.4,10-13.2,10-22,0-16.1-13.1-29.2-29.2-29.2s-29.2,13.1-29.2,29.2,3.9,16.7,10,22c2.1,1.8,3.5,4.3,3.5,7v1.6c0,4.4,3.6,8,8,8h15.3c4.4,0,8-3.6,8-8v-1.6Z"/>
      </g>
    </mask>
  </defs>
  <g class="st11">
    <g>
      <path class="st4" d="M26.8,74.6C0,47.4,27.4,1.4,64.3,5.6c33,4.5,39.9,34,29.7,52.1-12.2,21.6-46.2,38.4-67.3,17Z"/>
      <path class="st6" d="M72.1,72.8c0-2.7,1.5-5.2,3.5-7,6.1-5.4,10-13.2,10-22,0-16.1-13.1-29.2-29.2-29.2s-29.2,13.1-29.2,29.2,3.9,16.7,10,22c2.1,1.8,3.5,4.3,3.5,7v1.6c0,4.4,3.6,8,8,8h15.3c4.4,0,8-3.6,8-8v-1.6Z"/>
      <g class="st5">
        <g>
          <path class="st8" d="M78.3,56.2c.3-.1.8,0,.9.4.1.8-1.2,1.1-1.3.2,0-.2,0-.5.4-.7Z"/>
          <path class="st8" d="M72.4,56.5c.1.7-.2,1-.9.9-.7-.6.3-1.6.9-.9Z"/>
          <path class="st8" d="M85.6,56.5c.1.7-.2,1-.9.9-.7-.6.3-1.6.9-.9Z"/>
          <path class="st8" d="M65.7,56.7c0,.4-.2.6-.7.5,0,0,0-.2-.2-.2-.2-.7.8-.9.9-.3Z"/>
          <path class="st8" d="M92.1,56.7c0,.4-.2.6-.7.5,0,0,0-.2-.2-.2-.2-.7.8-.9.9-.3Z"/>
          <path class="st8" d="M74.9,59.3c1.6-.7,1.5,2.1,0,1.6-.7-.2-.7-1.3,0-1.6Z"/>
          <path class="st8" d="M81.5,59.3c1.6-.7,1.5,2.1,0,1.6-.7-.2-.7-1.3,0-1.6Z"/>
          <path class="st8" d="M68.2,59.4c.4-.3,1.1,0,1.2.2.4,1.2-1,1.5-1.5.9,0-.5,0-1,.3-1.1Z"/>
          <path class="st8" d="M88,59.4c.4-.3,1.1,0,1.2.2.4,1.2-1,1.5-1.5.9,0-.5,0-1,.3-1.1Z"/>
          <path class="st8" d="M61.8,59.5c.3-.1.8,0,.9.4.1.8-1.2,1.1-1.3.2,0-.2,0-.5.4-.7Z"/>
          <path class="st8" d="M55,60.2c0-.7.9-.7.9,0-.2.4-.7.4-.9,0Z"/>
          <path class="st8" d="M71.7,62.4c.5-.1,1.3,0,1.3.9.1,1.5-2.2,1.6-2.2.1s0-.8.9-1Z"/>
          <path class="st8" d="M78.2,62.4c1.7-.5,1.8,2,.4,2.1-.5,0-1.2-.2-1.2-1,0-.6.1-.9.8-1.1Z"/>
          <path class="st8" d="M84.9,62.4c.5-.1,1.3,0,1.3.9.1,1.5-2.2,1.6-2.2.1s0-.8.9-1Z"/>
          <path class="st8" d="M65.1,62.5c.7-.2,1.2.2,1.2.8,0,1.2-1.9,1.5-2,.2,0-.4,0-.8.8-1Z"/>
          <path class="st8" d="M59.4,62.8c.6,1-.6,1.7-1.3,1.1-.6-1,.6-1.7,1.3-1.1Z"/>
          <path class="st8" d="M52.5,63.1v.7c-.1.2-.5.1-.8.1-.5-.5.2-1.2.8-.8Z"/>
          <path class="st8" d="M68.3,65.6c.8-.2,1.5.2,1.5,1,.1,1.7-2.3,1.7-2.4.2,0-.4,0-1,.9-1.2Z"/>
          <path class="st8" d="M74.6,65.6c.3-.1.8-.2,1.1-.1,0,0,.6.6.7.7.2.6,0,1.2-.3,1.4-.2.2-.7.6-1.4.3-.1,0-.6-.5-.7-.7-.2-.7,0-1.3.7-1.6Z"/>
          <path class="st8" d="M81.2,65.6c.3-.1.8-.2,1.1-.1,0,0,.6.6.7.7.2.6,0,1.2-.3,1.4-.2.2-.7.6-1.4.3-.1,0-.6-.6-.7-.7-.2-.7,0-1.3.7-1.6Z"/>
          <path class="st8" d="M88.1,65.6c.4-.1.7-.1,1,0,.2.1.5.6.5.9.2,1.7-2.3,2-2.4.3,0-.8.2-1,.9-1.2Z"/>
          <path class="st8" d="M61.7,65.7c.6-.2,1.4.1,1.4.9,0,.7-.5,1.2-1,1.2-1.1,0-1.8-1.7-.4-2.1Z"/>
          <path class="st8" d="M55.1,65.9c1.6-.7,1.5,2.1,0,1.6-.7-.2-.7-1.3,0-1.6Z"/>
          <path class="st8" d="M49.3,66.4c.1.7-.2,1-.9.9-.7-.6.3-1.6.9-.9Z"/>
          <path class="st8" d="M71.7,68.7c.7-.1,1.6.3,1.6,1.2,0,.8-.7,1.5-1.3,1.5-.7,0-1.5-.6-1.5-1.4s.5-1.2,1.2-1.3Z"/>
          <path class="st8" d="M78.2,68.7c2.1-.5,2.3,2.7.4,2.7-.8,0-1.5-.4-1.5-1.4s.3-1.1,1.1-1.3Z"/>
          <path class="st8" d="M84.9,68.7s0-.1.2-.1c.8,0,1.4.7,1.4,1.3,0,.8-.7,1.5-1.3,1.5-.7,0-1.5-.6-1.5-1.4s.5-1.2,1.2-1.3Z"/>
          <path class="st8" d="M65,68.8c.7-.2,1.6.2,1.6,1.2s-.6,1.3-1.2,1.3c-.6,0-1.4-.4-1.4-1.3s.3-1,1-1.2Z"/>
          <path class="st8" d="M58.6,68.9c.2,0,.5,0,.7,0,.1,0,.5.5.5.5.1.3,0,.9,0,1.1,0,0-.6.6-.5.6-1,.5-2-.8-1.6-1.6,0,0,.5-.5.5-.5.1,0,.3,0,.4,0Z"/>
          <path class="st8" d="M52,69.1c.3,0,.8,0,.9.2.2.3.2,1.2-.1,1.4-.3.2-1.1.3-1.4-.1-.2-.2-.2-1,0-1.3.1-.2.4-.2.7-.2Z"/>
          <path class="st8" d="M46,69.7c.1.7-.2,1-.9.9-.7-.6.3-1.6.9-.9Z"/>
          <path class="st8" d="M68.5,71.9c.4,0,.9,0,1.2.3.5.5.4,1.8,0,2.2-.5.5-1.7.5-2.2,0-.2-.2-.5-.9-.4-1.2,0-.2.2-.8.3-.9.2-.3.7-.4,1.1-.4Z"/>
          <path class="st8" d="M74.8,71.9c.3,0,.6-.2.9-.1.4,0,1,.8,1.1,1.3,0,.9-.6,1.7-1.3,1.8-.7,0-1.8-.3-1.8-1.6,0-.6.3-1.1,1.1-1.3Z"/>
          <path class="st8" d="M81.4,71.9c.3,0,.6-.2.9-.1.4,0,1,.8,1.1,1.3,0,.9-.6,1.7-1.3,1.8-.7,0-1.8-.3-1.8-1.6,0-.6.3-1.1,1.1-1.3Z"/>
          <path class="st8" d="M61.9,72c.6,0,1.5.4,1.5,1.2,0,.7-.6,1.5-1.3,1.5-.7,0-1.6-.5-1.5-1.5,0,0,0-.4.1-.4.1-.3.5-.7,1.2-.8Z"/>
          <path class="st8" d="M55.1,72.2c.8-.2,1.5.2,1.5,1,.1,1.7-2.3,1.7-2.4.2,0-.4,0-1,.9-1.2Z"/>
          <path class="st8" d="M48.6,72.4c.4-.1.8,0,1,.2,0,0,.2.5.2.5,0,.6-.5,1.1-.9,1.1-.9,0-1.8-1.5-.3-1.9Z"/>
          <path class="st8" d="M42.7,73c.1.7-.2,1-.9.9-.7-.6.3-1.6.9-.9Z"/>
          <path class="st8" d="M71.5,75.1c.4,0,.6-.2.9-.1.5,0,1.1.7,1.2,1.3.2,1-.5,1.9-1.3,2-1,.1-2.1-.5-2-1.9,0-.6.3-1.1,1.2-1.3Z"/>
          <path class="st8" d="M77.9,75.1c.4-.1.8-.2,1.1-.1.3,0,1,.7,1.1,1.1.4,1.6-1.1,2.5-2.2,2.2-.3,0-1-.8-1.1-1.1-.2-.9.1-1.8,1.1-2.1Z"/>
          <path class="st8" d="M64.9,75.2c.3,0,.6-.2.9-.1.4,0,.7.5.9.7.4.4.2,1.7-.2,2.1,0,0-.2,0-.2.1-.2.2-1.2.3-1.6.1,0,0,0-.2-.1-.2,0,0-.2,0-.2,0-.2-.2-.4-.6-.4-.9-.1-.8.2-1.5,1.1-1.8Z"/>
          <path class="st8" d="M58.4,75.3c2.1-.5,2.3,2.7.4,2.7-.8,0-1.5-.4-1.5-1.4s.3-1.1,1.1-1.3Z"/>
          <path class="st8" d="M51.7,75.5c.7-.3,1.5,0,1.6.8.2.8-.4,1.4-.9,1.5-1.4.3-2.3-1.8-.8-2.3Z"/>
          <path class="st8" d="M45.4,75.7c.3,0,.8,0,.9.2.2.3.2,1.2-.1,1.4-.3.2-1.1.3-1.4-.1-.2-.2-.2-1,0-1.3.1-.2.4-.2.7-.2Z"/>
          <path class="st8" d="M68.4,78.2s0-.1.2-.1c.7.1,1.1.4,1.4.9,0,0,.3.5.3.8,0,1.4-1.5,2.3-2.6,1.5-.4-.2-.9-.7-.9-1.4s.1-.7.2-.9c0,0,.2,0,.2-.1.2-.4.4-.6,1.1-.7Z"/>
          <path class="st8" d="M74.6,78.2c.5-.1.8-.2,1.1-.1.3,0,1.1.8,1.2,1.3.2,1.2-.7,2.4-2.1,2.2-.7-.1-1.6-.8-1.4-2.1,0-.5.4-1.1,1.2-1.3Z"/>
          <path class="st8" d="M61.8,78.4c2.3-.4,2.4,3.2.2,3.2s-1.6-.5-1.6-1.6.5-1.4,1.4-1.5Z"/>
          <path class="st8" d="M55,78.6c.8-.2,1.7.1,1.9,1,.1.8-.4,1.6-1.1,1.8-.7.1-1.8-.2-1.8-1.5,0-.5.2-1,1-1.2Z"/>
          <path class="st8" d="M48.5,78.8c.8-.2,1.5.2,1.5,1,.1,1.7-2.3,1.7-2.4.2,0-.4,0-1,.9-1.2Z"/>
          <path class="st8" d="M71.5,81.4c1.2-.3,2.4.5,2.3,2,0,.8-.8,1.5-1.5,1.6-.9.1-2.3-.5-2.2-2.1,0-.6.5-1.3,1.4-1.5Z"/>
          <path class="st8" d="M77.9,81.4c.5-.1.7-.2,1.1-.1,0,0,.3,0,.3.1,0,0,0,.2.1.2.6.3,1.1,1.1.9,2.1,0,.5-.8,1.2-1.3,1.3-.4,0-1.1,0-1.4-.1,0,0,0-.2-.1-.2-.3-.1-.4-.3-.7-.5-.1-.1-.4-.9-.2-1.5,0-.4.5-1,1.3-1.2Z"/>
          <path class="st8" d="M64.9,81.5c1.7-.4,2.6,1.2,2.1,2.4-.2.6-1.3,1.3-2.4.9-1.1-.4-1.5-2.9.3-3.3Z"/>
          <path class="st8" d="M58.5,81.7c2.3-.4,2.4,3.2.2,3.2s-1.6-.5-1.6-1.6.5-1.4,1.4-1.5Z"/>
          <path class="st8" d="M51.8,81.9c2.1-.5,2.3,2.7.4,2.7-.8,0-1.5-.4-1.5-1.4s.3-1.1,1.1-1.3Z"/>
          <path class="st8" d="M45.4,82.1c.2,0,.5,0,.7,0,.1,0,.5.5.5.5.1.3,0,.9,0,1.1,0,0-.6.6-.5.5-1,.5-2-.8-1.6-1.6,0,0,.5-.5.5-.5.1,0,.3,0,.4,0Z"/>
        </g>
      </g>
      <path class="st9" d="M41.8,77.5h29.2v14.6c0,2.6-1.1,5.1-3.1,6.8l-5.6,4.8c-3.4,2.9-8.4,2.9-11.7,0l-5.6-4.8c-2-1.7-3.1-4.2-3.1-6.8v-14.6Z"/>
      <path class="st7" d="M50.4,102.9h12l-2.6,2.6c-.9.9-2.1,1.4-3.4,1.4h0c-1.3,0-2.5-.5-3.4-1.4l-2.6-2.6Z"/>
      <path class="st2" d="M11.2,44.2h8.3M102.4,44.2h-8.3"/>
      <path class="st2" d="M56.8-1.4V6.9"/>
      <path class="st2" d="M23.5,10.9l6,6M90.1,77.6l-6-6"/>
      <path class="st2" d="M90.1,10.9l-6,6M23.5,77.6l6-6"/>
      <path class="st1" d="M58.8,77.7l-17.2,6.8"/>
      <path class="st1" d="M71.2,79.7l-29.6,12"/>
      <path class="st1" d="M60,90.9l-16.8,7.2"/>
      <path class="st3" d="M54.2,76.5c0-11.6.1-21.4-5.4-29.9-2.4-3.8-8.4-7-12-3.6-1.3,1.2-1,4.3,1.5,4.5,11.4,1,25.9-9.5,24.6-21.3-.3-2.9-3.3-1.8-4.7,1-1.9,3.8-2.1,8.6-1,12.7,1.8,7.3,11,11.9,17.4,6.6,1-.8,2.5-3.4.4-4.3-2-.8-5.4.4-6.9,1.5-10.8,7-10.1,21.6-10.1,32.8"/>
    </g>
  </g>
</svg>