<svg xmlns="http://www.w3.org/2000/svg" viewBox="0 0 100 100"><circle cx="50" cy="40" r="20" fill="#E8B86D"/><g stroke="#E8B86D" stroke-width="3" stroke-linecap="round"><line x1="50" y1="8" x2="50" y2="14"/><line x1="78" y1="20" x2="74" y2="24"/><line x1="22" y1="20" x2="26" y2="24"/><line x1="86" y1="40" x2="80" y2="40"/><line x1="20" y1="40" x2="14" y2="40"/></g><path d="M30 70 C 20 70 14 64 14 56 C 14 50 18 46 24 46 C 28 38 36 34 44 36 C 52 30 64 32 70 40 C 80 40 86 46 86 54 C 86 64 78 70 68 70 Z" fill="#D03A3A"/><g fill="white" opacity="0.55"><circle cx="30" cy="58" r="1.5"/><circle cx="38" cy="56" r="1.5"/><circle cx="46" cy="58" r="1.5"/><circle cx="54" cy="56" r="1.5"/><circle cx="62" cy="58" r="1.5"/><circle cx="70" cy="60" r="1.5"/></g></svg>
