<?xml version="1.0" encoding="UTF-8"?>
<svg id="Layer_1" xmlns="http://www.w3.org/2000/svg" version="1.1" viewBox="0 0 185 154">
  <!-- Generator: Adobe Illustrator 29.3.1, SVG Export Plug-In . SVG Version: 2.1.0 Build 151)  -->
  <defs>
    <style>
      .st0 {
        fill: #fde3e5;
      }

      .st1 {
        fill: #ffc85c;
      }

      .st2 {
        fill: #dfecfb;
      }

      .st3 {
        fill: #fdc606;
      }

      .st4 {
        stroke: #085285;
        stroke-width: 2px;
      }

      .st4, .st5 {
        fill: none;
      }

      .st5 {
        stroke: #ffc85c;
        stroke-width: 3px;
      }

      .st6 {
        fill: #c73c3b;
      }
    </style>
  </defs>
  <ellipse class="st3" cx="112.6" cy="74.2" rx="39.3" ry="39.6"/>
  <path class="st1" d="M52,62.1c-.8-1-1.6-2-2.3-3.2.3-.2.6-.2.9-.2,1.1,0,2,.9,2,1.9s-.3,1.1-.6,1.4Z"/>
  <path class="st1" d="M56.3,66.1c-1.1-.8-2.1-1.7-3.1-2.7.4-.4.9-.6,1.5-.6,1.1,0,2.1.9,2.1,2s-.2.9-.4,1.3Z"/>
  <path class="st1" d="M87.4,64.4c-.7.7-1.5,1.3-2.3,1.8-.7-.2-1.2-.9-1.2-1.7s.8-1.7,1.7-1.7,1.6.7,1.7,1.6Z"/>
  <path class="st1" d="M90.8,60.4c-.4.6-.9,1.2-1.4,1.8,0,0,0,0,0,0-.8,0-1.4-.6-1.4-1.4s.6-1.4,1.4-1.4,1.2.5,1.4,1.1Z"/>
  <path class="st1" d="M93.4,55.8c-.3.7-.6,1.3-.9,1.9-.2-.2-.3-.5-.3-.8,0-.6.5-1.1,1.1-1.1s0,0,.1,0Z"/>
  <path class="st1" d="M54.1,34c0,.3.2.5.5.5s.5-.2.5-.5-.2-.5-.5-.5-.5.2-.5.5Z"/>
  <path class="st1" d="M58.6,38.4c.5,0,.8-.4.8-.8s-.4-.8-.8-.8-.8.4-.8.8.4.8.8.8Z"/>
  <path class="st1" d="M60,45.4c0,.8-.6,1.4-1.4,1.4s-1.4-.6-1.4-1.4.6-1.4,1.4-1.4,1.4.6,1.4,1.4Z"/>
  <path class="st1" d="M58.6,54.6c.9,0,1.6-.7,1.6-1.6s-.7-1.6-1.6-1.6-1.6.7-1.6,1.6.7,1.6,1.6,1.6Z"/>
  <path class="st1" d="M58.6,62.8c1.1,0,2.1-.9,2.1-2s-.9-2-2.1-2-2.1.9-2.1,2,.9,2,2.1,2Z"/>
  <path class="st1" d="M54.7,58.9c-1,0-1.9-.8-1.9-1.8s.8-1.8,1.9-1.8,1.9.8,1.9,1.8-.8,1.8-1.9,1.8Z"/>
  <path class="st1" d="M54.6,50.9c.9,0,1.5-.7,1.5-1.5s-.7-1.5-1.5-1.5-1.5.7-1.5,1.5.7,1.5,1.5,1.5Z"/>
  <path class="st1" d="M52.4,53.1c0,1-.8,1.7-1.7,1.7s-1.7-.8-1.7-1.7.8-1.7,1.7-1.7,1.7.8,1.7,1.7Z"/>
  <path class="st1" d="M50.7,46.8c.7,0,1.3-.6,1.3-1.3s-.6-1.3-1.3-1.3-1.3.6-1.3,1.3.6,1.3,1.3,1.3Z"/>
  <path class="st1" d="M54.7,42.7c-.6,0-1-.5-1-1s.5-1,1-1,1,.5,1,1-.5,1-1,1Z"/>
  <path class="st1" d="M51.4,37.7c0,.4-.3.7-.7.7s-.7-.3-.7-.7.3-.7.7-.7.7.3.7.7Z"/>
  <path class="st1" d="M64.4,64.9c0,1.1-.9,2-2.1,2s-2.1-.9-2.1-2,.9-2,2.1-2,2.1.9,2.1,2Z"/>
  <path class="st1" d="M64.4,60.7c0,1.1.9,1.9,2,1.9s2-.9,2-1.9-.9-1.9-2-1.9-2,.9-2,1.9Z"/>
  <path class="st1" d="M64.2,57.1c0,1-.8,1.8-1.9,1.8s-1.9-.8-1.9-1.8.8-1.8,1.9-1.8,1.9.8,1.9,1.8Z"/>
  <path class="st1" d="M60.9,49.4c0,.8.7,1.5,1.5,1.5s1.5-.7,1.5-1.5-.7-1.5-1.5-1.5-1.5.7-1.5,1.5Z"/>
  <path class="st1" d="M66.3,54.8c-1,0-1.7-.8-1.7-1.7s.8-1.7,1.7-1.7,1.7.8,1.7,1.7-.8,1.7-1.7,1.7Z"/>
  <path class="st1" d="M68.3,56.9c0,1,.8,1.8,1.9,1.8s1.9-.8,1.9-1.8-.8-1.8-1.9-1.8-1.9.8-1.9,1.8Z"/>
  <path class="st1" d="M73.9,54.6c-.9,0-1.5-.7-1.5-1.5s.7-1.5,1.5-1.5,1.5.7,1.5,1.5-.7,1.5-1.5,1.5Z"/>
  <path class="st1" d="M68.9,49.3c0,.8.6,1.4,1.4,1.4s1.4-.6,1.4-1.4-.6-1.4-1.4-1.4-1.4.6-1.4,1.4Z"/>
  <path class="st1" d="M66.3,46.8c-.7,0-1.3-.6-1.3-1.3s.6-1.3,1.3-1.3,1.3.6,1.3,1.3-.6,1.3-1.3,1.3Z"/>
  <path class="st1" d="M62.3,42.7c.6,0,1-.5,1-1s-.5-1-1-1-1,.5-1,1,.5,1,1,1Z"/>
  <path class="st1" d="M62.9,34c0,.3-.2.5-.5.5s-.5-.2-.5-.5.2-.5.5-.5.5.2.5.5Z"/>
  <path class="st1" d="M69.3,41.6c0,.5.4.9.9.9s.9-.4.9-.9-.4-.9-.9-.9-.9.4-.9.9Z"/>
  <path class="st1" d="M66.3,38.4c-.4,0-.7-.3-.7-.7s.3-.7.7-.7.7.3.7.7-.3.7-.7.7Z"/>
  <path class="st1" d="M73,45.3c0,.6.5,1.1,1.1,1.1s1.1-.5,1.1-1.1-.5-1.1-1.1-1.1-1.1.5-1.1,1.1Z"/>
  <path class="st1" d="M77.9,50.3c-.7,0-1.2-.6-1.2-1.2s.6-1.2,1.2-1.2,1.2.6,1.2,1.2-.6,1.2-1.2,1.2Z"/>
  <path class="st1" d="M80.8,45.3c0,.5.4.9.9.9s.9-.4.9-.9-.4-.9-.9-.9-.9.4-.9.9Z"/>
  <path class="st1" d="M78,42.3c-.4,0-.7-.3-.7-.7s.3-.7.7-.7.7.3.7.7-.3.7-.7.7Z"/>
  <path class="st1" d="M73.4,37.8c0,.3.3.6.6.6s.6-.3.6-.6-.3-.6-.6-.6-.6.3-.6.6Z"/>
  <path class="st1" d="M81.8,38.2c-.2,0-.4-.2-.4-.4s.2-.4.4-.4.4.2.4.4-.2.4-.4.4Z"/>
  <path class="st1" d="M85.1,41.4c0,.3.2.5.5.5s.5-.2.5-.5-.2-.5-.5-.5-.5.2-.5.5Z"/>
  <path class="st1" d="M68.3,64.5c0,1.1.9,1.9,2,1.9s2-.9,2-1.9-.9-1.9-2-1.9-2,.9-2,1.9Z"/>
  <path class="st1" d="M74,62.6c-1,0-1.9-.8-1.9-1.8s.8-1.8,1.9-1.8,1.9.8,1.9,1.8-.8,1.8-1.9,1.8Z"/>
  <path class="st1" d="M77.9,58.5c-.9,0-1.6-.7-1.6-1.6s.7-1.6,1.6-1.6,1.6.7,1.6,1.6-.7,1.6-1.6,1.6Z"/>
  <path class="st1" d="M81.7,54.4c-.7,0-1.3-.6-1.3-1.3s.6-1.3,1.3-1.3,1.3.6,1.3,1.3-.6,1.3-1.3,1.3Z"/>
  <path class="st1" d="M85.5,50.3c-.6,0-1-.5-1-1s.5-1,1-1,1,.5,1,1-.5,1-1,1Z"/>
  <path class="st1" d="M88.8,45.4c0,.3.3.6.6.6s.6-.3.6-.6-.3-.6-.6-.6-.6.3-.6.6Z"/>
  <path class="st1" d="M78,66.5c-1.1,0-2-.9-2-1.9s.9-1.9,2-1.9,2,.9,2,1.9-.9,1.9-2,1.9Z"/>
  <path class="st1" d="M80.2,60.6c0,.9.7,1.6,1.6,1.6s1.6-.7,1.6-1.6-.7-1.6-1.6-1.6-1.6.7-1.6,1.6Z"/>
  <path class="st1" d="M85.6,58.1c-.7,0-1.3-.6-1.3-1.3s.6-1.3,1.3-1.3,1.3.6,1.3,1.3-.6,1.3-1.3,1.3Z"/>
  <path class="st1" d="M88.4,53.1c0,.6.5,1.1,1.1,1.1s1.1-.5,1.1-1.1-.5-1.1-1.1-1.1-1.1.5-1.1,1.1Z"/>
  <path class="st1" d="M93.4,49.9c-.5,0-.8-.4-.8-.8s.4-.8.8-.8.8.4.8.8-.4.8-.8.8Z"/>
  <path class="st6" d="M121.3,95.5c4.5-6.7,12-12,23-11.7,16.9.4,32.4,16.1,26.8,36.7-8.5,30.9-52.3,31.8-89.2,30.9-30-.7-65.5,0-71.8-25-3.2-12.6,4.4-21.9,12.1-24.6,6.5-2.2,11.4-1.3,14.8.9,1.9-16.1,12.1-38.7,40.7-40,26.4-1.2,39,16.6,43.5,32.7Z"/>
  <path class="st0" d="M20.6,141.3c-.9-.6-1.8-1.3-2.7-2.1,0,0,.2,0,.3,0,1.2,0,2.2.9,2.4,2.1Z"/>
  <path class="st0" d="M42.1,148.9c-2.2-.4-4.3-.8-6.4-1.3.4-1.3,1.7-2.2,3.1-2.2s3.3,1.5,3.3,3.3,0,.1,0,.2Z"/>
  <path class="st0" d="M55.5,150.4c-2.1-.1-4.1-.3-6.1-.5-.2-.4-.3-.9-.3-1.4,0-1.9,1.6-3.5,3.5-3.5s3.5,1.6,3.5,3.5-.2,1.4-.6,1.9Z"/>
  <path class="st0" d="M69.4,151.1c-1.9,0-3.8-.1-5.8-.2-.4-.6-.7-1.4-.7-2.2,0-2,1.6-3.7,3.7-3.7s3.7,1.6,3.7,3.7-.3,1.7-.9,2.4Z"/>
  <path class="st0" d="M82.4,151.4c-.1,0-.3,0-.4,0-1.2,0-2.5,0-3.8,0-.8-.6-1.3-1.6-1.3-2.7,0-1.9,1.6-3.5,3.5-3.5s3.5,1.6,3.5,3.5-.6,2.2-1.4,2.8Z"/>
  <path class="st0" d="M95.7,151.5c-1.1,0-2.3,0-3.4,0-.9-.6-1.6-1.6-1.6-2.8,0-1.8,1.5-3.3,3.3-3.3s3.3,1.5,3.3,3.3-.6,2.3-1.6,2.8Z"/>
  <path class="st0" d="M123.5,150.2c-1.3.2-2.6.3-3.8.4-.5-.5-.8-1.1-.8-1.9,0-1.4,1.1-2.6,2.6-2.6s2.6,1.2,2.6,2.6-.2,1.1-.5,1.5Z"/>
  <path class="st0" d="M136.9,147.9c-1.2.3-2.5.6-3.7.8,0-1,1-1.8,2-1.8s1.4.4,1.7,1Z"/>
  <path class="st0" d="M59.5,101.7c-.5,0-.9-.4-.9-.9s.4-.9.9-.9.9.4.9.9-.4.9-.9.9Z"/>
  <path class="st0" d="M68.1,107.2c0,.8-.7,1.5-1.5,1.5s-1.5-.7-1.5-1.5.7-1.5,1.5-1.5,1.5.7,1.5,1.5Z"/>
  <path class="st0" d="M66.6,123.7c1.4,0,2.6-1.2,2.6-2.6s-1.1-2.6-2.6-2.6-2.6,1.2-2.6,2.6,1.1,2.6,2.6,2.6Z"/>
  <path class="st0" d="M69.5,134.8c0,1.6-1.3,2.9-2.9,2.9s-2.9-1.3-2.9-2.9,1.3-2.9,2.9-2.9,2.9,1.3,2.9,2.9Z"/>
  <path class="st0" d="M59.7,145.4c-1.8,0-3.3-1.5-3.3-3.3s1.5-3.3,3.3-3.3,3.3,1.5,3.3,3.3c0,1.8-1.5,3.3-3.3,3.3Z"/>
  <path class="st0" d="M59.5,131.1c1.5,0,2.7-1.2,2.7-2.8s-1.2-2.8-2.7-2.8-2.7,1.2-2.7,2.8,1.2,2.8,2.7,2.8Z"/>
  <path class="st0" d="M55.7,134.9c0,1.7-1.4,3.1-3.1,3.1s-3.1-1.4-3.1-3.1,1.4-3.1,3.1-3.1,3.1,1.4,3.1,3.1Z"/>
  <path class="st0" d="M45.8,145c1.8,0,3.3-1.5,3.3-3.3s-1.5-3.3-3.3-3.3-3.3,1.5-3.3,3.3,1.5,3.3,3.3,3.3Z"/>
  <path class="st0" d="M41.8,134.9c0,1.5-1.2,2.8-2.7,2.8s-2.7-1.2-2.7-2.8,1.2-2.8,2.7-2.8,2.7,1.2,2.7,2.8Z"/>
  <path class="st0" d="M45.4,130.7c1.4,0,2.6-1.2,2.6-2.6s-1.1-2.6-2.6-2.6-2.6,1.2-2.6,2.6,1.1,2.6,2.6,2.6Z"/>
  <path class="st0" d="M54.9,121.3c0,1.3-1.1,2.4-2.4,2.4s-2.4-1.1-2.4-2.4,1.1-2.4,2.4-2.4,2.4,1.1,2.4,2.4Z"/>
  <path class="st0" d="M57.9,114.5c0,1,.8,1.8,1.8,1.8s1.8-.8,1.8-1.8c0-1-.8-1.8-1.8-1.8s-1.8.8-1.8,1.8Z"/>
  <path class="st0" d="M45.6,116c.9,0,1.6-.7,1.6-1.7s-.7-1.7-1.6-1.7-1.6.7-1.6,1.7.7,1.7,1.6,1.7Z"/>
  <path class="st0" d="M53.8,107.4c0,.7-.6,1.3-1.3,1.3s-1.3-.6-1.3-1.3.6-1.3,1.3-1.3,1.3.6,1.3,1.3Z"/>
  <path class="st0" d="M38.7,123c1.1,0,2-.9,2-2s-.9-2-2-2-2,.9-2,2,.9,2,2,2Z"/>
  <path class="st0" d="M34.1,127.8c0,1.2-1,2.2-2.2,2.2s-2.2-1-2.2-2.2,1-2.2,2.2-2.2,2.2,1,2.2,2.2Z"/>
  <path class="st0" d="M25.2,122.6c.9,0,1.6-.7,1.6-1.7s-.7-1.7-1.6-1.7-1.6.7-1.6,1.7.7,1.7,1.6,1.7Z"/>
  <path class="st0" d="M33,114.4c0,.7-.6,1.3-1.3,1.3s-1.3-.6-1.3-1.3.6-1.3,1.3-1.3,1.3.6,1.3,1.3Z"/>
  <path class="st0" d="M38.9,108.7c.6,0,1.1-.5,1.1-1.1s-.5-1.1-1.1-1.1-1.1.5-1.1,1.1.5,1.1,1.1,1.1Z"/>
  <path class="st0" d="M25.7,107.6c0,.4-.3.7-.7.7s-.7-.3-.7-.7.3-.7.7-.7.7.3.7.7Z"/>
  <path class="st0" d="M18.2,114.9c.5,0,.9-.4.9-.9s-.4-.9-.9-.9-.9.4-.9.9.4.9.9.9Z"/>
  <path class="st0" d="M31.9,144.7c1.6,0,2.9-1.3,2.9-2.9s-1.3-2.9-2.9-2.9-2.9,1.3-2.9,2.9,1.3,2.9,2.9,2.9Z"/>
  <path class="st0" d="M25.2,137.3c1.3,0,2.4-1.1,2.4-2.4s-1.1-2.4-2.4-2.4-2.4,1.1-2.4,2.4,1.1,2.4,2.4,2.4Z"/>
  <path class="st0" d="M20.2,128.1c0,1-.8,1.8-1.8,1.8s-1.8-.8-1.8-1.8.8-1.8,1.8-1.8,1.8.8,1.8,1.8Z"/>
  <path class="st2" d="M11.5,122.3c.6,0,1.1-.5,1.1-1.1s-.5-1.1-1.1-1.1-1.1.5-1.1,1.1.5,1.1,1.1,1.1Z"/>
  <path class="st0" d="M76.5,142.1c0,1.8-1.5,3.3-3.3,3.3s-3.3-1.5-3.3-3.3,1.5-3.3,3.3-3.3,3.3,1.5,3.3,3.3Z"/>
  <path class="st0" d="M70.6,128.3c0,1.5,1.2,2.8,2.7,2.8s2.7-1.2,2.7-2.8-1.2-2.8-2.7-2.8-2.7,1.2-2.7,2.8Z"/>
  <path class="st0" d="M80.3,138.1c-1.7,0-3.1-1.4-3.1-3.1s1.4-3.1,3.1-3.1,3.1,1.4,3.1,3.1-1.4,3.1-3.1,3.1Z"/>
  <path class="st0" d="M83.8,141.7c0,1.8,1.5,3.3,3.3,3.3s3.3-1.5,3.3-3.3-1.5-3.3-3.3-3.3-3.3,1.5-3.3,3.3Z"/>
  <path class="st0" d="M93.8,137.7c-1.5,0-2.7-1.2-2.7-2.8s1.2-2.8,2.7-2.8,2.7,1.2,2.7,2.8-1.2,2.8-2.7,2.8Z"/>
  <path class="st0" d="M84.9,128.1c0,1.4,1.1,2.6,2.6,2.6s2.6-1.2,2.6-2.6-1.1-2.6-2.6-2.6-2.6,1.2-2.6,2.6Z"/>
  <path class="st0" d="M80.3,123.7c-1.3,0-2.4-1.1-2.4-2.4s1.1-2.4,2.4-2.4,2.4,1.1,2.4,2.4-1.1,2.4-2.4,2.4Z"/>
  <path class="st0" d="M73.2,116.4c1,0,1.8-.8,1.8-1.8s-.8-1.8-1.8-1.8-1.8.8-1.8,1.8.8,1.8,1.8,1.8Z"/>
  <path class="st0" d="M74.3,100.8c0,.5-.4.9-.9.9s-.9-.4-.9-.9.4-.9.9-.9.9.4.9.9Z"/>
  <path class="st0" d="M85.6,114.4c0,.9.7,1.7,1.6,1.7s1.6-.7,1.6-1.7-.7-1.7-1.6-1.7-1.6.7-1.6,1.7Z"/>
  <path class="st0" d="M80.3,108.7c-.7,0-1.3-.6-1.3-1.3s.6-1.3,1.3-1.3,1.3.6,1.3,1.3-.6,1.3-1.3,1.3Z"/>
  <path class="st0" d="M92.2,121c0,1.1.9,2,2,2s2-.9,2-2-.9-2-2-2-2,.9-2,2Z"/>
  <path class="st0" d="M101,130c-1.2,0-2.2-1-2.2-2.2s1-2.2,2.2-2.2,2.2,1,2.2,2.2-1,2.2-2.2,2.2Z"/>
  <path class="st0" d="M106.1,121c0,.9.7,1.7,1.6,1.7s1.6-.7,1.6-1.7-.7-1.7-1.6-1.7-1.6.7-1.6,1.7Z"/>
  <path class="st0" d="M101.1,115.6c-.7,0-1.3-.6-1.3-1.3s.6-1.3,1.3-1.3,1.3.6,1.3,1.3-.6,1.3-1.3,1.3Z"/>
  <path class="st0" d="M92.9,107.6c0,.6.5,1.1,1.1,1.1s1.1-.5,1.1-1.1-.5-1.1-1.1-1.1-1.1.5-1.1,1.1Z"/>
  <path class="st0" d="M107.9,108.3c-.4,0-.7-.3-.7-.7s.3-.7.7-.7.7.3.7.7-.3.7-.7.7Z"/>
  <path class="st0" d="M113.7,114c0,.5.4.9.9.9s.9-.4.9-.9-.4-.9-.9-.9-.9.4-.9.9Z"/>
  <path class="st0" d="M142.1,143.2c-.7,0-1.3-.6-1.3-1.3s.6-1.3,1.3-1.3,1.3.6,1.3,1.3-.6,1.3-1.3,1.3Z"/>
  <path class="st0" d="M101,144.7c-1.6,0-2.9-1.3-2.9-2.9s1.3-2.9,2.9-2.9,2.9,1.3,2.9,2.9-1.3,2.9-2.9,2.9Z"/>
  <path class="st0" d="M107.7,137.3c-1.3,0-2.4-1.1-2.4-2.4s1.1-2.4,2.4-2.4,2.4,1.1,2.4,2.4-1.1,2.4-2.4,2.4Z"/>
  <path class="st0" d="M126.2,141.9c0,1.1.9,2,2,2s2-.9,2-2-.9-2-2-2-2,.9-2,2Z"/>
  <path class="st0" d="M114.5,130c-1,0-1.8-.8-1.8-1.8s.8-1.8,1.8-1.8,1.8.8,1.8,1.8-.8,1.8-1.8,1.8Z"/>
  <path class="st0" d="M133.8,134.9c0,.7.6,1.3,1.3,1.3s1.3-.6,1.3-1.3-.6-1.3-1.3-1.3-1.3.6-1.3,1.3Z"/>
  <path class="st0" d="M121.4,122.3c-.6,0-1.1-.5-1.1-1.1s.5-1.1,1.1-1.1,1.1.5,1.1,1.1-.5,1.1-1.1,1.1Z"/>
  <path class="st0" d="M105,148.4c0,1.6,1.3,2.9,2.9,2.9s2.9-1.3,2.9-2.9-1.3-2.9-2.9-2.9-2.9,1.3-2.9,2.9Z"/>
  <path class="st0" d="M114.7,143.9c-1.3,0-2.4-1.1-2.4-2.4s1.1-2.4,2.4-2.4,2.4,1.1,2.4,2.4-1.1,2.4-2.4,2.4Z"/>
  <path class="st0" d="M119.6,134.9c0,1.1.9,2,2,2s2-.9,2-2-.9-2-2-2-2,.9-2,2Z"/>
  <path class="st0" d="M128.4,129.2c-.8,0-1.5-.7-1.5-1.5s.7-1.5,1.5-1.5,1.5.7,1.5,1.5-.7,1.5-1.5,1.5Z"/>
  <path class="st4" d="M136.7,82.2c-28.7-.7-33.2,36.5-24.7,36.7,8.5.2,6-59.8-41.8-57.7-45.5,2-44.5,57.9-37.5,55.8,7-2.2,1.3-23.3-18.1-16.7-7.8,2.6-15.3,12-12.1,24.6,6.3,25,41.8,24.3,71.8,25,36.9.9,80.7,0,89.2-30.9,5.6-20.6-9.9-36.3-26.8-36.7Z"/>
  <path class="st5" d="M111.9.5v21.7M185,74.2h-21.6M163.6,22.1l-15.2,15.4M75.4,37.5l-15.2-15.4"/>
</svg>