<svg width="2180" height="2180" viewBox="0 0 2180 2180" fill="none" xmlns="http://www.w3.org/2000/svg">
<g clip-path="url(#clip0_72_10925)">
<path d="M2180 1022.13C2137.16 948.006 2136.87 867.193 2145.92 784.211C2151.37 734.409 2154.05 685.13 2121.09 641.421C2079.86 586.791 2023.77 575.509 1965.92 611.991C1955.85 618.346 1945.39 624.744 1937.04 633.072C1864.47 705.492 1772.73 734.17 1674.87 749.702C1650.53 753.382 1626.42 758.396 1602.63 764.722C1511.66 789.585 1478.23 847.976 1502.35 939.308C1525.24 1026.13 1578.51 1095.43 1633.71 1163.28C1674.39 1213.27 1718.05 1260.45 1774.48 1293.45C1877.35 1353.59 2005.56 1306.62 2033.69 1198.62C2046.3 1150.31 2033.9 1104.8 2017.88 1059.71C2005.89 1026.05 1992.54 992.859 1985.66 957.576C1976.19 908.973 1991.23 865.58 2013.06 823.353C2025.69 798.905 2039.02 774.641 2042.85 746.683C2046.6 719.313 2025.85 700.903 1999.25 708.533C1973.82 715.825 1958.44 735.02 1944.97 756.079C1920.66 794.098 1913.14 838.548 1897.79 880.001C1873.54 945.521 1841.23 1006.29 1788.05 1053.05C1755.02 1082.09 1718.64 1108.81 1671.26 1086.76C1629.65 1067.38 1599.19 1003.03 1605.26 954.698C1613.2 891.478 1650.77 851.148 1707.42 828.324C1795.82 792.67 1879.64 750.836 1949.12 683.114C1975.63 657.248 2010.29 638.25 2047.4 660.954C2087.27 685.359 2083.94 727.237 2078.39 766.804C2074.47 794.806 2067.75 822.394 2061.83 850.135C2051.09 900.405 2064.09 945.139 2091.8 987.126C2111.07 1016.34 2131.04 1045.22 2145.38 1077.41C2173.01 1139.21 2167.57 1197.99 2123.35 1249.04C2047.05 1337.06 1945.68 1379.68 1832.82 1390.31C1753.91 1397.73 1701.78 1348 1662.09 1284.99C1653.1 1270.82 1644.93 1256.16 1637.59 1241.07C1608.16 1180.03 1569.91 1125.83 1522.9 1076.64C1469.16 1020.38 1435.49 953.532 1439.94 873.101C1445.17 778.958 1496.28 714.092 1589.2 699.3C1718.51 678.721 1838.81 637.17 1954.7 576.915C2041.67 531.713 2104.82 545.61 2157.85 609.299C2166.32 619.481 2173.74 630.487 2180 642.152V535.048C2151.17 513.782 2118.75 498.413 2080.46 492.898C2041.48 487.285 2005.53 500.027 1972.29 518.273C1920.41 546.766 1871 579.891 1818.37 606.836C1737.12 648.452 1652.06 659.156 1564.4 626.063C1482.25 595.075 1461.04 520.758 1471.4 442.257C1472.24 435.924 1473.99 428.534 1481.28 427.542C1489.34 426.452 1492.76 434.016 1495.02 440.044C1499.85 452.895 1504.49 465.953 1507.57 479.284C1529.66 575.455 1582.18 610.945 1680.75 598.53C1751.6 589.614 1811.86 556.282 1872.13 521.892C1922.84 492.953 1972.86 462.596 2029.22 445.123C2085.9 427.542 2135.08 438.191 2180.01 465.168V348.538C2133.6 342.347 2089.29 357.989 2045.48 386.285C1961.13 440.785 1869.55 482.085 1779.21 525.14C1687.48 568.86 1581.32 524.933 1549.42 434.583C1518.51 346.969 1575.58 246.46 1671.74 220.136C1741.1 201.16 1809.26 210.73 1870.22 244.716C1949.52 288.926 2033.54 305.364 2122.26 307.271C2141.58 307.685 2160.83 308.895 2180.03 310.792V237.762C2118.68 237.522 2057.27 242.852 1996 237.849C1960.31 234.939 1929.43 217.477 1898.61 200.571C1801.3 147.161 1700.77 135.716 1597.84 182.139C1484.58 233.26 1426.22 321.354 1421.75 446.442C1418.89 526.917 1429.22 606.967 1425.37 687.409C1422.35 750.323 1409.33 811.669 1401.16 873.799C1394.74 922.631 1396.8 970.678 1422.82 1013.87C1495.48 1134.69 1568.22 1255.41 1650.02 1370.13C1688.44 1424.05 1740.34 1460.35 1811.23 1458.31C1829.28 1457.79 1847.45 1455.61 1863.81 1448.5C1949.92 1410.98 2036.32 1372.79 2109.4 1312.91C2137.1 1290.21 2161.62 1265.14 2180 1236.6V1022.13Z" fill="#EDF3FC"/>
<path d="M1383.07 1817.74C1358.38 1778.35 1323.74 1748.7 1285.89 1722.91C1197.6 1662.89 1136.83 1583.04 1113.06 1478.54C1086.04 1359.73 1026.15 1267.17 916.21 1208.98C844.085 1170.83 786.805 1114.96 738.344 1049.51C707.497 1007.84 678.394 964.661 641.334 927.895C601.713 888.655 555.224 875.488 500.8 887.674C467.752 895.065 435.586 906.651 401.36 908.581C327.436 912.755 265.796 882.955 208.844 839.747C186.575 822.852 164.753 805.031 137.34 796.801C130.135 794.621 120.456 790.534 116.074 799.384C112.194 807.189 121.448 811.549 126.538 815.734C163.5 846.625 201.65 876.251 237.947 907.85C311.653 971.888 396.455 997.873 493.007 985.175C579.335 973.839 650.73 999.094 697.851 1074.26C753.441 1162.98 802.131 1255.79 845.644 1350.95C878.791 1423.42 876.611 1502.46 877.254 1580.06C877.744 1643.75 890.334 1702.62 928.342 1755.15C953.074 1789.3 954.055 1826.48 936.353 1864.34C918.238 1903.11 900.013 1941.83 881.679 1980.49C878.998 1986.13 877.395 1995.81 869.199 1993.74C861.569 1991.81 862.005 1982.59 861.743 1975.49C860.588 1944.33 868.512 1914.45 878.671 1885.82C899.479 1827.09 892.263 1776.1 846.864 1730.7C816.159 1699.99 804.747 1660.94 809.913 1617.55C813.096 1590.88 815.135 1563.9 820.737 1537.72C840.891 1443.51 828.465 1355.79 770.859 1276.9C720.719 1208.23 667.592 1141.74 619.665 1071.33C584.098 1019.01 534.22 1002.93 472.646 1021.85C391.234 1046.87 308.361 1059.37 224.823 1033.77C175.828 1018.75 129.034 996.315 79.8534 982.308C44.2649 972.193 17.331 975.267 0.0871582 990.014V1153.03C23.5004 1216.25 60.7675 1272.29 104.444 1325.08C155.412 1386.68 204.964 1449.51 212.452 1533.27C217.76 1592.53 245.37 1639.84 284.065 1682.68C306.05 1707.02 329.311 1730.52 345.541 1759.47C364.343 1792.98 358.621 1817.58 327.163 1839.52C299.913 1858.47 269.72 1872.46 237.783 1879.21C155.968 1896.5 83.6139 1931.23 20.8735 1986.49C14.5092 1992.23 7.56892 1997.28 0.163458 2001.59V2064.57C41.0276 2056.03 80.8888 2043.54 120.75 2031.07C245.01 1992.17 370.022 1957.85 502.108 1962.68C570.168 1965.17 637.007 1975.4 692.858 2017C751.391 2060.6 799.21 2112.39 822.394 2180.03H886.17C869.024 2152.49 845.731 2129.06 822.95 2105.83C771.371 2053.32 739.02 1995.38 744.306 1918.57C747.206 1876.16 705.393 1851.94 662.436 1867.81C646.86 1873.57 632.254 1882.32 617.834 1890.78C583.957 1910.68 548.444 1918.03 510.545 1905.15C467.479 1890.51 426.419 1895.03 385.816 1914.37C341.41 1935.51 293.94 1944.44 245.065 1946.59C240.432 1946.79 233.598 1948.02 232.355 1942.86C231.156 1937.89 238.1 1936.53 241.925 1935.56C309.669 1918.51 370.872 1886.8 431.585 1853.28C462.716 1836.08 497.716 1835.58 532.192 1840.14C576.763 1846.02 616.842 1834.78 655.471 1813.37C685.054 1797.02 714.953 1779.98 751.162 1785.11C807.385 1793.07 834.744 1833.93 820.268 1888.66C814.382 1910.98 807.439 1932.96 805.008 1956.16C800.518 1998.82 813.87 2033.77 846.603 2061.7C878.376 2088.83 911.796 2114.33 936.757 2148.56C944.072 2158.5 950.572 2169.01 956.191 2180H1007.35C989.763 2157.95 971.92 2136.1 957.205 2111.85C916.101 2044.35 914.107 1978.63 963.505 1914.19C973.49 1901.11 982.995 1887.76 992.445 1874.33C1031.8 1818.4 1031.82 1789.17 990.134 1735.45C962.154 1699.4 936.724 1662.15 930.249 1615.93C925.443 1581.96 922.292 1547.68 920.211 1513.47C914.662 1422.53 902.454 1333.68 848.914 1256.04C843.464 1248.18 831.822 1239.18 838.689 1229.88C846.014 1219.98 858.669 1228.39 868.948 1230.21C870.026 1230.52 871.067 1230.96 872.054 1231.49C962.666 1269.43 1028.16 1330.32 1052.84 1428.78C1066.12 1481.76 1067.01 1538.32 1094.37 1587.19C1157.13 1699.46 1257.64 1772.41 1362.83 1839.96C1369.75 1844.41 1379.5 1848.4 1386.5 1840.41C1393.13 1832.77 1387.24 1824.4 1383.07 1817.74ZM572.25 1776.63C453.669 1788.73 360.943 1727.39 325.474 1605.13C298.714 1512.92 253.708 1433.49 192.712 1360.9C161.527 1323.77 132.598 1284.1 126.505 1233.64C116.63 1151.62 155.783 1105.26 243.441 1092.53C285.329 1086.44 327.371 1083.98 385.337 1083.56C414.887 1083.06 460.067 1084.86 504.234 1095.68C577.209 1113.56 624.766 1163.19 649.716 1229.89C690.046 1337.57 722.517 1448.25 744.906 1561.17C769.889 1687.17 678.307 1765.8 572.25 1776.63Z" fill="#EDF3FC"/>
<path d="M2180 1285.5C2085.17 1403.5 1962.72 1482.38 1811.29 1518.48C1710.8 1542.46 1674.45 1525.44 1621.48 1436.83C1591.36 1386.43 1557 1339.09 1520.8 1292.95C1471.96 1230.71 1422.42 1168.69 1393.27 1093.98C1342.2 963.179 1348.37 827.343 1361.28 691.572C1369.76 602.312 1380.13 513.673 1372.06 423.432C1359.91 287.389 1425.15 168.983 1542.18 121.088C1670.04 68.7681 1797.86 64.6697 1918.6 144.763C1981.82 186.728 2050.14 203.765 2125.97 194.238C2143.87 191.982 2161.94 190.968 2180.02 190.412V0H2111.44C2118.15 2.96715 2124.56 6.57737 2130.58 10.7801C2175.07 42.1285 2176.36 85.5759 2133.33 118.505C2108.26 137.711 2079.4 146.616 2043.95 146.681C2008.49 145.629 1974.11 134.29 1944.99 114.047C1905.93 86.9384 1905.32 51.012 1942.38 21.2659C1953.62 12.3925 1966.11 5.22661 1979.44 0L1815 0C1770.91 25.4188 1722.94 43.4147 1672.54 56.7781C1603.58 75.0465 1533.47 89.38 1470.41 125.786C1360.19 189.366 1308.78 281.351 1327.24 400.902C1340.95 489.726 1333.51 575.302 1310.8 661.085C1296.01 717.22 1279.46 773.769 1288.29 832.967C1295.27 879.728 1311.97 925.018 1311.67 972.858C1311.2 1046.05 1335.65 1110.61 1375.15 1171.04C1408.94 1222.66 1436.47 1277.5 1453.63 1337.1C1462.5 1367.84 1469.15 1399.23 1483.84 1428.12C1542.7 1543.54 1690.99 1606.97 1826.97 1566.06C1964.55 1524.64 2085.57 1456.99 2179.99 1352.11L2180 1285.5Z" fill="#EDF3FC"/>
<path d="M916.134 1058.84C948.834 1073.3 982.232 1086.09 1014.87 1100.59C1128.99 1151.48 1182.63 1244.94 1193.15 1364.56C1202.55 1471.48 1251.01 1547.68 1350.11 1591.47C1382.58 1605.8 1412.8 1624.78 1439.8 1647.83C1521.55 1717.59 1518.28 1759.52 1486.1 1828.03C1448.6 1907.73 1448.34 1986.31 1492.2 2064.85C1512.59 2101.36 1529.49 2139.4 1537.87 2180H1602.18C1596.15 2139.92 1580.38 2102.5 1558.58 2066.64C1540.16 2036.43 1521.78 2006.17 1510.36 1972.29C1492.14 1918.27 1506.43 1869.22 1530.71 1820.61C1561.14 1759.63 1554.69 1717.83 1509.31 1666.92C1476.86 1630.54 1436.71 1603.7 1395.57 1578.68C1323.63 1534.98 1278.12 1473.16 1265.68 1389.84C1248.67 1275.98 1218.6 1169.52 1129.43 1087.63C1086.73 1048.58 1057.04 997.644 1022.75 951.058C1003.69 925.159 979.812 904.493 944.431 911.72C910.782 918.597 883.391 937.313 862.463 964.585C847.682 983.856 849.448 1003.42 864.795 1021.84C878.714 1038.54 896.601 1050.19 916.134 1058.84ZM922.532 979.114C929.835 967.299 941.945 967.702 953.565 970.972C985.425 979.91 1009.69 999.41 1028.11 1026.5C1031.97 1032.18 1034.65 1038.61 1030.29 1045.22C1026.09 1051.59 1019.3 1052.28 1008.33 1051.92C979.125 1048.19 949.303 1037.15 927.754 1010.05C920.647 1001.07 915.665 990.232 922.532 979.114Z" fill="#EDF3FC"/>
<path d="M1689.65 2180C1699.69 2115.28 1725.11 2055.74 1762.76 2000.07C1802.53 1941.3 1851.46 1890.47 1900.33 1839.48C1942.48 1795.51 1984.99 1751.41 1999.9 1689.42C2012.98 1635.17 1981.62 1600.71 1927.62 1612.66C1842.34 1631.51 1780.68 1681.94 1757.82 1766.83C1732.75 1859.95 1698.77 1949.52 1665.5 2039.63C1648.66 2085.22 1636.47 2131.95 1631.41 2180H1689.65Z" fill="#EDF3FC"/>
<path d="M1098.29 2170.35C1102.23 2173.62 1106.2 2176.78 1110.15 2180H1228.17C1189.91 2157.73 1157.04 2129.17 1132.54 2091.83C1121.9 2075.6 1127.96 2061.91 1147.8 2061.58C1151.56 2063.03 1159.36 2064.85 1165.82 2068.74C1203.77 2091.94 1233.4 2123.33 1254.8 2162.3C1257.83 2167.75 1261.05 2174.12 1258.22 2180H1359.11C1341.4 2108.36 1304.83 2045.4 1254.83 1989.09C1213.19 1942.22 1159.54 1921.86 1096.78 1924.99C1014.42 1929.13 977.207 1987.29 1009 2063.23C1027.72 2108.06 1061.66 2140.28 1098.29 2170.35Z" fill="#EDF3FC"/>
<path d="M743.108 2143.17C735.183 2133.85 726.354 2124.74 716.359 2117.83C574.888 2020.08 424.381 1989.83 262.167 2061.15C177.823 2098.25 92.65 2130.59 0 2137.6V2180H88.0502C130.342 2168.2 171.174 2151.1 210.741 2129.66C315.871 2072.67 416.151 2078.97 515.014 2145.75C532.084 2157.3 549.175 2168.93 566.604 2180H762.651C760.678 2168.57 754.215 2156.21 743.108 2143.17Z" fill="#EDF3FC"/>
<path d="M944.321 1374.97C972.661 1437.1 994.069 1501.1 986.722 1570.54C980.76 1626.85 998.516 1673 1037.88 1712.41C1058.07 1732.67 1071.44 1756.59 1073.85 1786.2C1075.88 1811.15 1090.09 1829.66 1109.71 1844.42C1137.76 1865.51 1170.31 1876.46 1203.75 1884.17C1279.23 1901.61 1332.27 1943.38 1354.17 2019.52C1369.87 2074.14 1396.02 2122.79 1432.01 2166.67C1435.55 2171.03 1438.92 2175.39 1442.05 2180H1485.75C1480.62 2170.76 1474.85 2161.81 1469.03 2152.95C1442.28 2112.22 1422.86 2068.61 1413.61 2020.85C1400.74 1954.36 1365.06 1905.31 1305.91 1872.22C1257.62 1845.2 1212.33 1813.6 1171.54 1775.96C1097.55 1707.67 1043.73 1628.29 1035.48 1524.56C1032.32 1484.84 1034.51 1444.49 1021.06 1406.1C1008.88 1371.34 990.668 1340.98 954.971 1325.8C940.049 1319.44 930.86 1325.51 933.639 1342.25C935.514 1353.45 939.58 1364.57 944.321 1374.97Z" fill="#EDF3FC"/>
<path d="M1817.25 2180C1821.7 2119.77 1841.03 2063.16 1872.93 2010.13C1924.95 1923.64 2001.55 1859.65 2075.93 1793.76C2110.39 1763.24 2148.37 1736.28 2180 1702.78V1567.89C2158.2 1559.61 2133.13 1563.98 2110.11 1581.03C2080.68 1602.83 2066.13 1634.51 2055.87 1667.82C2025.49 1766.43 1968.44 1846.24 1890.19 1912.53C1836.86 1957.69 1785.09 2004.67 1757.76 2071.91C1743.86 2106.28 1736.44 2142.93 1735.85 2180H1817.25Z" fill="#EDF3FC"/>
<path d="M1984.39 2170.53C1989.42 2173.99 1994.48 2177.13 1999.56 2180H2149.71C2160.22 2174.46 2170.34 2168.21 2180 2161.28V2099.94C2156.94 2115.16 2130.19 2124.24 2099.75 2127.19C2071.82 2129.85 2050.04 2117.26 2039.46 2091.8C2022.9 2051.97 2021.48 2010.9 2052.38 1977.41C2090.63 1935.99 2133.04 1899.5 2180 1868.99V1772.42C2151.89 1799.67 2122.5 1825.6 2093.8 1852.24C2046.48 1896.15 1994.93 1935.93 1955.79 1988.03C1907.73 2051.98 1919.68 2125.91 1984.39 2170.53Z" fill="#EDF3FC"/>
<path d="M476.93 2180C401.403 2118.96 326.749 2114.87 243.157 2167.65C236.617 2171.8 230.03 2175.92 223.396 2180H476.93Z" fill="#EDF3FC"/>
<path d="M2180 1914.83C2129.46 1941.85 2089.6 1980.66 2064.46 2035.1C2057.46 2050.21 2054.41 2067.08 2067.41 2081.34C2082.23 2097.6 2101.97 2100.57 2122.02 2096.38C2145.65 2091.44 2164.65 2081.88 2180.05 2068.8L2180 1914.83Z" fill="#EDF3FC"/>
<path d="M2180 1406.67C2166.06 1418.23 2151.41 1428.91 2136.15 1438.66C2101.97 1460.65 2066.6 1481.32 2040.4 1513.45C2034.33 1520.91 2024.71 1530.28 2032.69 1539.93C2040.49 1549.38 2052 1542.71 2060.27 1537.75C2087.79 1521.4 2114.34 1503.36 2141.9 1487.07C2154.31 1479.74 2166.97 1474.06 2180.05 1470.92L2180 1406.67Z" fill="#EDF3FC"/>
<path d="M1315.03 0C1204.73 60.5713 1139.43 149.33 1127.44 278.168C1120.29 355.078 1093.76 428.141 1029.85 478.259C927.285 558.69 808.464 588.208 679.964 576.076C617.736 570.201 562.538 515.875 552.641 459.631C543.496 407.638 566.048 370.11 633.682 335.164C694.897 303.554 744.917 259.485 790.304 208.724C824.094 170.868 858.113 132.642 904.7 109.534C958.339 82.84 1037.44 121.59 1038.04 178.4C1039.1 279.04 1000.86 364.06 919.655 425.896C874.234 460.481 822.361 448.055 771.807 438.812C732.48 431.64 692.913 423.269 653.586 437.799C628.243 447.162 623.851 464.732 640.931 485.693C664.028 514.033 695.071 529.042 730.758 529.359C945.738 531.299 1074.5 379.603 1080.95 203.22C1084.22 114.287 1121.03 47.8401 1197.52 3.8259C1199.76 2.5288 1202.03 1.2753 1204.3 0H904.787C898.77 9.3522 892.546 18.53 884.916 26.4979C832.335 81.532 788.56 143.455 742.028 203.263C705.742 249.893 666.884 296.622 606.127 309.233C479.818 335.393 368.126 305.374 276.206 211.722C237.555 172.307 191.266 146.645 137.34 134.735C90.6553 124.478 42.946 117.066 0 97.01V153.69C56.7454 163.249 112.619 176.471 163.315 204.92C269.361 264.358 359.329 347.1 458.89 416.118C486.663 435.368 497.705 468.308 500.31 502.446C500.866 509.564 500.386 517.347 493.443 521.456C486.096 525.816 478.87 522.263 472.526 518.099C454.977 506.578 443.161 489.683 430.844 473.213C322.553 328.428 192.505 224.736 0 235.298V292.033C30.8238 289.664 61.7586 289.078 92.65 290.278C130.713 291.978 169.146 293.973 203.056 314.171C255.725 345.53 272.118 398.014 280.784 453.811C298.06 565.427 348.495 623.208 450.17 643.242C509.477 654.927 570.135 650.359 630.074 655.014C637.901 655.482 645.76 655.755 653.564 656.453C869.918 675.953 1028.7 585.09 1136.31 400.869C1164.92 351.917 1183.6 297.319 1209.43 246.602C1259.69 147.978 1324.54 62.6205 1413.42 0H1315.03ZM1006.4 26.9557C1022.02 9.4503 1042.48 2.8231 1065.63 1.8857C1078.45 2.725 1093.2 2.4089 1097.59 18.0504C1102.11 34.226 1088.38 40.9404 1077.27 47.4041C1059.83 57.4866 1040.94 62.6641 1020.59 61.3779C1012 60.8547 1004.46 58.1079 1000.78 49.3879C997.11 40.6679 1000.82 33.2123 1006.4 26.9557Z" fill="#EDF3FC"/>
<path d="M1685.14 1611.02C1571.78 1585.8 1493.76 1517.28 1436.9 1419.84C1400.93 1358.13 1374.28 1292.15 1348.61 1225.82C1316.74 1143.56 1281.82 1063.41 1209.83 1006.51C1167.51 973.054 1133.53 932.299 1103.77 887.391C1060.73 822.438 999.203 798.981 923.372 815.876C881.581 825.184 843.039 845.72 799.886 850.461C739.009 857.143 684.15 838.809 631.394 811.385C578.638 783.961 525.38 775.186 468.231 800.158C437.602 813.565 403.921 815.418 370.295 813.412C301.418 809.259 243.495 777.758 187.175 741.592C134.168 707.53 79.6355 677.064 14.2137 674.448C9.50494 674.753 4.70894 674.797 -0.043457 675.157V715.334C10.7503 722.204 22.3477 727.721 34.4877 731.76C115.758 759.141 195.143 791.176 271.345 830.46C339.895 865.787 409.775 872.774 484.887 853.895C570.615 832.346 645.247 853.982 702.887 924.124C721.199 946.425 737.287 970.372 749.528 996.336C785.312 1072.27 841.556 1128.47 915.469 1166.1C1025.56 1222.14 1095.47 1309.87 1128.41 1427.7C1157.78 1532.78 1211.6 1617.87 1309.5 1673.71C1350.51 1697.1 1384.71 1732.27 1422.43 1761.68C1428.63 1766.52 1437.08 1772.7 1444.63 1765.96C1451.56 1759.77 1446.54 1751.18 1443.42 1744.16C1440.37 1737.37 1436.78 1730.83 1432.67 1724.61C1405.28 1682.79 1367.76 1651.85 1325.63 1626.05C1297.29 1608.71 1269.36 1590.99 1244.51 1568.59C1186.97 1516.71 1166.64 1447.6 1153.36 1375.07C1132.34 1260.15 1073.62 1177.19 958.47 1139.41C914.935 1125.12 873.166 1105.46 837.883 1074.97C804.889 1046.45 780.669 1011.93 785.171 966.546C791.656 901.146 840.935 872.948 895.043 852.99C946.349 834.057 983.616 845.873 1020.31 889.887C1059.96 937.443 1093.92 990.167 1143.12 1029.06C1236.33 1102.81 1293.81 1198.52 1312.38 1315.02C1329.2 1420.5 1384.9 1494.38 1476.56 1545.23C1509.77 1563.65 1540.87 1585.79 1570.4 1610.04C1645.25 1671.63 1656.24 1740.36 1603.98 1821.88C1594.72 1836.32 1584.52 1850.22 1576.01 1865.08C1560.23 1892.62 1548.28 1921.47 1554.35 1954.36C1556.38 1965.34 1560.89 1975.6 1573.09 1978.48C1585.45 1981.4 1593.55 1973.44 1600.49 1964.78C1610.37 1952.44 1617.15 1938.27 1622.41 1923.49C1649.15 1848.5 1684.28 1777.76 1725.83 1709.78C1762.06 1650.59 1752.61 1626.02 1685.14 1611.02Z" fill="#EDF3FC"/>
<path d="M1488.04 0C1409.62 38.4879 1350.12 102.329 1303.69 183.959C1255.73 268.314 1220.65 358.872 1176.04 444.873C1084.71 620.951 944.659 713.22 742.628 702.614C669.87 698.788 596.96 692.314 524.29 694.014C428.065 696.27 339.339 675.277 253.883 631.884C173.539 591.118 89.4672 561.034 0 548.019V609.212C9.6901 610.585 19.3475 612.177 28.9177 614.106C112.771 631.045 188.058 670.426 264.543 706.135C341.29 741.963 420.838 760.918 505.629 748.83C561.219 740.895 617.616 734.355 671.124 752.558C766.979 785.149 859.814 780.898 956.475 753.255C1049.05 726.801 1109.88 755.708 1162.88 836.706C1178.95 861.285 1192.68 887.424 1207.31 912.94C1221.48 937.564 1235.04 962.546 1255.81 982.428C1261.96 988.303 1269.04 995.366 1278.38 991.322C1288.31 986.962 1287.56 976.596 1287.18 967.8C1286.09 942.981 1280.13 918.903 1270.83 896.154C1233.4 804.682 1222.25 713.656 1265.28 620.025C1292.83 560.075 1302.02 496.342 1294.95 429.896C1286.57 351.067 1293.24 274.244 1334.51 203.525C1389.01 110.112 1476.21 65.3673 1576.06 38.4988C1624.02 25.5932 1673.7 19.0423 1719.94 0.0327L1488.04 0ZM1204.04 689.708C1194.23 704.859 1182.03 718.692 1161.37 713.688C1140.72 708.685 1133.58 691.703 1132.65 672.911C1130.19 623.109 1147.67 579.444 1177.21 540.269C1185.3 529.544 1195.96 520.824 1210.73 525.402C1224.42 529.642 1229.37 541.828 1231.9 554.625C1233.62 563.345 1234.08 572.359 1234.73 578.605C1232.92 619.883 1225.26 656.823 1204.04 689.708Z" fill="#EDF3FC"/>
<path d="M721.373 0C681.98 51.0992 634.053 94.6992 589.21 140.828C545.818 185.518 501.465 191.306 449.538 158.322C364.147 104.084 271.148 72.376 173.048 51.5025C125.59 41.3219 79.9188 26.5306 40.9513 0H0V29.539C31.3375 51.5679 67.58 65.1166 106.58 71.068C217.629 87.9848 314.258 129.35 396.379 207.896C437.472 247.201 489.966 270.167 548.891 272.892C597.603 274.309 634.914 253.785 657.085 210.915C680.324 165.996 711.923 128.936 749.081 95.1897C780.146 66.9805 808.638 36.297 829.49 0H721.373Z" fill="#EDF3FC"/>
<path d="M830.46 400.597C805.009 399.256 768.33 397.24 733.995 383.157C710.996 373.761 706.832 357.585 724.926 340.985C784.255 286.561 840.183 228.093 907.349 182.717C924.68 171.01 943.112 161.211 964.378 158.29C988.815 154.933 1012.14 171.86 1011.66 195.829C1010.57 250.329 998.582 302.344 966.612 347.645C936.223 390.776 891.239 401.937 830.46 400.597Z" fill="#EDF3FC"/>
<path d="M121.175 1431.72C83.1779 1365.23 37.8448 1302.77 0 1236.16V1326.63C16.4372 1349.87 32.3185 1373.5 48.4069 1396.98C72.485 1432.11 95.6257 1467.91 105.49 1510.14C119.9 1571.82 89.4454 1619.36 54.7616 1664.92C33.0924 1693.41 14.5515 1723.32 0 1755.21V1908.26C8.9504 1894.89 15.7851 1880.22 20.2631 1864.77C40.5371 1795.28 71.286 1731.14 113.829 1672.93C171.719 1593.75 168.754 1514.98 121.175 1431.72Z" fill="#EDF3FC"/>
<path d="M236.857 514.676C230.917 487.786 222.229 461.342 218.469 434.19C209.912 372.366 179.948 344.963 106.471 345.432C72.1798 348.451 34.335 357.182 0 377.848V483.491C6.59202 485.174 13.2992 486.369 20.0669 487.066C79.1013 493.116 136.697 503.416 187.556 537.032C193.006 540.64 199.786 542.645 206.239 544.215C229.925 549.981 242.078 538.329 236.857 514.676Z" fill="#EDF3FC"/>
<path d="M143.389 0C169.549 11.7829 197.203 20.5138 225.554 28.0893C284.032 43.7199 336.417 35.3051 383.462 0H143.389Z" fill="#EDF3FC"/>
<path d="M285.776 986.45C212.855 917.606 136.108 853.95 46.3686 807.462C30.3565 799.199 14.5842 790.512 0 780.44V833.741C66.2066 892.525 136.13 946.437 214.468 989.241C234.437 1000.14 255.987 1007.57 276.816 1009.7C284.915 1009.57 292.229 1010.88 294.725 1004.15C297.701 996.151 290.692 991.127 285.776 986.45Z" fill="#EDF3FC"/>
<path d="M0 1631.17C36.0572 1585.9 44.69 1534.27 29.4954 1478.31C23.0317 1454.52 12.2407 1432.93 0 1412.05V1631.17Z" fill="#EDF3FC"/>
<path d="M481.66 0C472.603 6.86258 464.262 14.6228 456.764 23.1625C442.54 39.3599 430.604 58.9254 442.911 81.1832C456.067 105.011 479.415 109.523 504.103 105.261C516.158 102.985 527.734 98.6609 538.329 92.4756C577.754 69.8363 608.678 38.3135 632.2 0H481.66Z" fill="#EDF3FC"/>
<path d="M163.271 1840.01C148.284 1840.33 133.263 1840.01 119.082 1834.76C101.642 1828.22 95.5712 1816.39 103.692 1798.62C132.795 1734.87 217.433 1715.78 270.462 1761.21C283.345 1772.26 294.115 1785.43 289.482 1803.72C285.122 1821.16 269.241 1825.14 254.079 1828.4C224.115 1834.8 193.944 1839.45 163.271 1840.01Z" fill="#EDF3FC"/>
<path d="M1808.31 850.495C1832.88 850.418 1844.53 861.95 1839.07 881.69C1821.7 944.376 1787.6 995.541 1730.17 1028.46C1706.19 1042.2 1681.82 1042.75 1660.23 1021.92C1639.52 1001.94 1634.07 975.049 1646.43 948.05C1666.69 903.817 1707.04 884.088 1748.53 866.3C1768.38 857.83 1789.13 851.639 1808.31 850.495Z" fill="#EDF3FC"/>
<path d="M1754.49 446.802C1699.36 449.679 1669.52 435.586 1658.4 409.971C1648.33 386.754 1655.97 356.136 1677.04 335.131C1691.63 320.602 1709.51 311.544 1729.6 310.192C1799.43 305.494 1862.18 329.441 1922.04 361.891C1939.14 371.156 1935.95 386.765 1915.38 397C1859.54 424.773 1800.87 443.336 1754.49 446.802Z" fill="#EDF3FC"/>
<path d="M398.744 1128.42C504.201 1128.6 567.083 1169.13 599.369 1269.6C630.619 1366.82 650.523 1467.38 652.779 1570.06C653.869 1617.6 636.211 1659.66 595.75 1688.18C556.51 1715.81 513.335 1723.79 468.82 1703.16C422.299 1681.6 410.156 1638.85 406.69 1592.15C404.27 1559.79 403.235 1527.19 398.449 1495.14C389.882 1437.9 357.891 1396.51 307.554 1368.15C269.23 1346.56 230.818 1324.75 201.65 1290.56C159.663 1241.25 168.743 1194.45 226.077 1164.69C267.104 1143.34 338.728 1128.32 398.744 1128.42ZM385.01 1210.17C355.34 1211.06 335.164 1214.73 316.34 1223.6C302.453 1230.14 287.596 1237.63 286.768 1255.46C285.885 1274.47 299.674 1284.71 314.541 1292.74C354.097 1314.11 427.367 1304.53 460.285 1274C475.076 1260.29 474.063 1246.51 459.13 1234.12C435.095 1214.16 405.97 1210.6 385.01 1210.19V1210.17Z" fill="#EDF3FC"/>
<path d="M2034.36 110.472C2002.68 110.472 1977.58 105.763 1955.95 90.0126C1933.54 73.6626 1935.37 51.4048 1960.94 41.1152C2007.7 22.2909 2054.25 25.2012 2099.15 48.0585C2109.16 53.1488 2118.63 60.5717 2117.68 73.7063C2116.8 86.6337 2106.58 92.1708 2096.27 97.0758C2074.98 107.224 2052.23 110.21 2034.36 110.472Z" fill="#EDF3FC"/>
</g>
<defs>
<clipPath id="clip0_72_10925">
<rect width="2180" height="2180" fill="white"/>
</clipPath>
</defs>
</svg>
